<svg width="48" height="48" viewBox="0 0 48 48" fill="none" xmlns="http://www.w3.org/2000/svg">
<path d="M24 20C26.2091 20 28 21.7909 28 24C28 26.2091 26.2091 28 24 28C21.7909 28 20 26.2091 20 24C20 21.7909 21.7909 20 24 20Z" stroke="#686B6E" stroke-width="1.5" stroke-linecap="round" stroke-linejoin="round"/>
<path d="M13.8027 13.4938C11.9298 12.4125 9.53499 13.0542 8.45368 14.9271L8.37019 15.0717C7.28847 16.9453 7.93041 19.341 9.80401 20.4227L10.2896 20.7031C11.4348 21.3643 12 22.6776 12 24C12 25.3224 11.4348 26.6357 10.2896 27.2969L9.80401 27.5773C7.93042 28.659 7.28847 31.0547 8.37019 32.9283L8.45368 33.0729C9.53499 34.9458 11.9298 35.5875 13.8027 34.5062L14.2909 34.2243C15.4361 33.5632 16.8466 33.726 17.9906 34.3892C19.1342 35.0521 20 36.201 20 37.5228V38.0854C20 40.2474 21.7526 42 23.9146 42H24.0855C26.2474 42 28 40.2474 28 38.0855V37.5228C28 36.201 28.8658 35.0521 30.0094 34.3892C31.1534 33.726 32.5639 33.5632 33.7091 34.2243L34.1973 34.5062C36.0702 35.5875 38.4651 34.9458 39.5464 33.0729L39.6298 32.9284C40.7116 31.0548 40.0696 28.659 38.196 27.5773L37.7104 27.2969C36.5652 26.6357 36 25.3224 36 24C36 22.6776 36.5652 21.3643 37.7104 20.7031L38.196 20.4227C40.0696 19.341 40.7116 16.9452 39.6298 15.0716L39.5464 14.9271C38.4651 13.0542 36.0702 12.4125 34.1973 13.4938L33.7091 13.7757C32.5639 14.4368 31.1534 14.274 30.0094 13.6108C28.8658 12.9479 28 11.799 28 10.4772V9.91455C28 7.7526 26.2474 6 24.0855 6L23.9146 6C21.7526 6 20 7.7526 20 9.91455V10.4772C20 11.799 19.1342 12.9479 17.9906 13.6108C16.8466 14.274 15.4361 14.4368 14.2909 13.7757L13.8027 13.4938Z" stroke="#686B6E" stroke-width="1.5" stroke-linecap="round" stroke-linejoin="round"/>
</svg>
