<svg width="592" height="107" viewBox="0 0 592 107" fill="none" xmlns="http://www.w3.org/2000/svg">
<g filter="url(#filter0_dd_0_73)">
<path d="M65.3334 61.3332L59.359 55.3587M59.359 55.3587C61.5525 53.1652 62.9092 50.1349 62.9092 46.7877C62.9092 40.0934 57.4823 34.6665 50.788 34.6665C44.0936 34.6665 38.6667 40.0934 38.6667 46.7877C38.6667 53.4821 44.0936 58.9089 50.788 58.9089C54.1351 58.9089 57.1654 57.5522 59.359 55.3587Z" stroke="#686B6E" stroke-width="1.5" stroke-linecap="round" stroke-linejoin="round"/>
</g>
<path d="M114.273 60.336C112.966 60.336 111.753 60.0933 110.633 59.608C109.513 59.104 108.561 58.4227 107.777 57.564C106.993 56.7053 106.414 55.716 106.041 54.596L108.841 53.42C109.345 54.708 110.082 55.6973 111.053 56.388C112.023 57.0787 113.143 57.424 114.413 57.424C115.159 57.424 115.813 57.312 116.373 57.088C116.933 56.8453 117.362 56.5093 117.661 56.08C117.978 55.6507 118.137 55.156 118.137 54.596C118.137 53.8307 117.922 53.224 117.493 52.776C117.063 52.328 116.429 51.9733 115.589 51.712L111.669 50.48C110.101 49.9947 108.906 49.2573 108.085 48.268C107.263 47.26 106.853 46.084 106.853 44.74C106.853 43.564 107.142 42.5373 107.721 41.66C108.299 40.764 109.093 40.064 110.101 39.56C111.127 39.056 112.294 38.804 113.601 38.804C114.851 38.804 115.99 39.028 117.017 39.476C118.043 39.9053 118.921 40.5027 119.649 41.268C120.395 42.0333 120.937 42.92 121.273 43.928L118.529 45.132C118.118 44.0307 117.474 43.1813 116.597 42.584C115.738 41.9867 114.739 41.688 113.601 41.688C112.91 41.688 112.303 41.8093 111.781 42.052C111.258 42.276 110.847 42.612 110.549 43.06C110.269 43.4893 110.129 43.9933 110.129 44.572C110.129 45.244 110.343 45.8413 110.773 46.364C111.202 46.8867 111.855 47.2787 112.733 47.54L116.373 48.688C118.034 49.192 119.285 49.92 120.125 50.872C120.965 51.8053 121.385 52.972 121.385 54.372C121.385 55.5293 121.077 56.556 120.461 57.452C119.863 58.348 119.033 59.0573 117.969 59.58C116.905 60.084 115.673 60.336 114.273 60.336ZM132.197 60.336C130.685 60.336 129.341 59.9907 128.165 59.3C127.008 58.5907 126.103 57.6387 125.449 56.444C124.796 55.2307 124.469 53.8773 124.469 52.384C124.469 50.8533 124.796 49.5 125.449 48.324C126.121 47.148 127.017 46.224 128.137 45.552C129.257 44.8613 130.527 44.516 131.945 44.516C133.084 44.516 134.101 44.712 134.997 45.104C135.893 45.496 136.65 46.0373 137.266 46.728C137.882 47.4 138.348 48.1747 138.665 49.052C139.001 49.9293 139.169 50.8627 139.169 51.852C139.169 52.0947 139.16 52.3467 139.141 52.608C139.123 52.8693 139.085 53.112 139.029 53.336H126.961V50.816H137.237L135.725 51.964C135.912 51.0493 135.847 50.2373 135.529 49.528C135.231 48.8 134.764 48.2307 134.13 47.82C133.513 47.3907 132.785 47.176 131.945 47.176C131.105 47.176 130.359 47.3907 129.705 47.82C129.052 48.2307 128.548 48.828 128.193 49.612C127.839 50.3773 127.699 51.3107 127.773 52.412C127.68 53.4387 127.82 54.3347 128.193 55.1C128.585 55.8653 129.127 56.4627 129.817 56.892C130.527 57.3213 131.329 57.536 132.225 57.536C133.14 57.536 133.915 57.3307 134.549 56.92C135.203 56.5093 135.716 55.9773 136.089 55.324L138.665 56.584C138.367 57.2933 137.9 57.9373 137.266 58.516C136.65 59.076 135.903 59.524 135.026 59.86C134.167 60.1773 133.224 60.336 132.197 60.336ZM146.957 60.336C145.93 60.336 145.025 60.1587 144.241 59.804C143.475 59.4307 142.878 58.9267 142.449 58.292C142.019 57.6387 141.805 56.8733 141.805 55.996C141.805 55.1747 141.982 54.4373 142.337 53.784C142.71 53.1307 143.279 52.58 144.045 52.132C144.81 51.684 145.771 51.3667 146.929 51.18L152.193 50.312V52.804L147.545 53.616C146.705 53.7653 146.089 54.036 145.697 54.428C145.305 54.8013 145.109 55.2867 145.109 55.884C145.109 56.4627 145.323 56.9387 145.753 57.312C146.201 57.6667 146.77 57.844 147.461 57.844C148.319 57.844 149.066 57.6573 149.701 57.284C150.354 56.9107 150.858 56.416 151.213 55.8C151.567 55.1653 151.745 54.4653 151.745 53.7V49.808C151.745 49.0613 151.465 48.4547 150.905 47.988C150.363 47.5027 149.635 47.26 148.721 47.26C147.881 47.26 147.143 47.484 146.509 47.932C145.893 48.3613 145.435 48.9213 145.137 49.612L142.505 48.296C142.785 47.5493 143.242 46.896 143.877 46.336C144.511 45.7573 145.249 45.3093 146.089 44.992C146.947 44.6747 147.853 44.516 148.805 44.516C149.999 44.516 151.054 44.74 151.969 45.188C152.902 45.636 153.621 46.2613 154.125 47.064C154.647 47.848 154.909 48.7627 154.909 49.808V60H151.885V57.256L152.529 57.34C152.174 57.956 151.717 58.488 151.157 58.936C150.615 59.384 149.99 59.7293 149.281 59.972C148.59 60.2147 147.815 60.336 146.957 60.336ZM158.908 60V44.852H161.932V47.904L161.652 47.456C161.988 46.4667 162.529 45.7573 163.276 45.328C164.023 44.88 164.919 44.656 165.964 44.656H166.888V47.54H165.572C164.527 47.54 163.677 47.8667 163.024 48.52C162.389 49.1547 162.072 50.0693 162.072 51.264V60H158.908ZM176.549 60.336C175.037 60.336 173.693 59.9907 172.517 59.3C171.359 58.5907 170.435 57.6387 169.745 56.444C169.073 55.2493 168.737 53.896 168.737 52.384C168.737 50.8907 169.073 49.5467 169.745 48.352C170.417 47.1573 171.341 46.224 172.517 45.552C173.693 44.8613 175.037 44.516 176.549 44.516C177.575 44.516 178.537 44.7027 179.433 45.076C180.329 45.4307 181.103 45.9253 181.757 46.56C182.429 47.1947 182.923 47.932 183.241 48.772L180.469 50.06C180.151 49.276 179.638 48.6507 178.929 48.184C178.238 47.6987 177.445 47.456 176.549 47.456C175.69 47.456 174.915 47.6707 174.225 48.1C173.553 48.5107 173.021 49.0987 172.629 49.864C172.237 50.6107 172.041 51.46 172.041 52.412C172.041 53.364 172.237 54.2227 172.629 54.988C173.021 55.7347 173.553 56.3227 174.225 56.752C174.915 57.1813 175.69 57.396 176.549 57.396C177.463 57.396 178.257 57.1627 178.929 56.696C179.619 56.2107 180.133 55.5667 180.469 54.764L183.241 56.08C182.942 56.8827 182.457 57.6107 181.785 58.264C181.131 58.8987 180.357 59.4027 179.461 59.776C178.565 60.1493 177.594 60.336 176.549 60.336ZM186.633 60V38.804H189.797V47.82L189.293 47.428C189.666 46.476 190.264 45.7573 191.085 45.272C191.906 44.768 192.858 44.516 193.941 44.516C195.061 44.516 196.05 44.7587 196.909 45.244C197.768 45.7293 198.44 46.4013 198.925 47.26C199.41 48.1187 199.653 49.0987 199.653 50.2V60H196.517V51.068C196.517 50.3027 196.368 49.6587 196.069 49.136C195.789 48.5947 195.397 48.184 194.893 47.904C194.389 47.6053 193.81 47.456 193.157 47.456C192.522 47.456 191.944 47.6053 191.421 47.904C190.917 48.184 190.516 48.5947 190.217 49.136C189.937 49.6773 189.797 50.3213 189.797 51.068V60H186.633Z" fill="#E8E9E9"/>
<g filter="url(#filter1_dd_0_73)">
<rect x="484" y="22" width="76" height="52" rx="4" fill="url(#paint0_linear_0_73)" fill-opacity="0.16" shape-rendering="crispEdges"/>
<rect x="484.5" y="22.5" width="75" height="51" rx="3.5" stroke="white" stroke-opacity="0.08" shape-rendering="crispEdges"/>
<path d="M506.625 58.3835C505.91 58.3835 505.256 58.2102 504.665 57.8636C504.074 57.5114 503.603 57.0398 503.25 56.4489C502.898 55.8523 502.722 55.1989 502.722 54.4886C502.722 53.767 502.898 53.1108 503.25 52.5199C503.603 51.929 504.074 51.4574 504.665 51.1051C505.256 50.7528 505.91 50.5767 506.625 50.5767H508.398V47.9517H506.625C505.91 47.9517 505.256 47.7784 504.665 47.4318C504.074 47.0795 503.603 46.6108 503.25 46.0256C502.898 45.4347 502.722 44.7784 502.722 44.0568C502.722 43.3409 502.898 42.6875 503.25 42.0966C503.603 41.5057 504.074 41.0369 504.665 40.6903C505.256 40.3381 505.91 40.1619 506.625 40.1619C507.341 40.1619 507.995 40.3381 508.586 40.6903C509.177 41.0369 509.648 41.5057 510 42.0966C510.358 42.6875 510.537 43.3409 510.537 44.0568V45.821H513.154V44.0568C513.154 43.3409 513.327 42.6875 513.674 42.0966C514.026 41.5057 514.498 41.0369 515.088 40.6903C515.679 40.3381 516.336 40.1619 517.057 40.1619C517.773 40.1619 518.427 40.3381 519.017 40.6903C519.608 41.0369 520.077 41.5057 520.424 42.0966C520.776 42.6875 520.952 43.3409 520.952 44.0568C520.952 44.7784 520.776 45.4347 520.424 46.0256C520.071 46.6108 519.6 47.0795 519.009 47.4318C518.424 47.7784 517.773 47.9517 517.057 47.9517H515.293V50.5767H517.057C517.773 50.5767 518.424 50.7528 519.009 51.1051C519.6 51.4574 520.071 51.929 520.424 52.5199C520.776 53.1108 520.952 53.767 520.952 54.4886C520.952 55.1989 520.776 55.8523 520.424 56.4489C520.071 57.0398 519.6 57.5114 519.009 57.8636C518.424 58.2102 517.773 58.3835 517.057 58.3835C516.336 58.3835 515.679 58.2102 515.088 57.8636C514.498 57.5114 514.026 57.0398 513.674 56.4489C513.327 55.8523 513.154 55.1989 513.154 54.4886V52.7074H510.537V54.4886C510.537 55.1989 510.358 55.8523 510 56.4489C509.648 57.0398 509.177 57.5114 508.586 57.8636C507.995 58.2102 507.341 58.3835 506.625 58.3835ZM506.625 56.2528C506.949 56.2528 507.245 56.1733 507.512 56.0142C507.785 55.8551 508 55.642 508.16 55.375C508.319 55.108 508.398 54.8125 508.398 54.4886V52.7074H506.625C506.302 52.7074 506.006 52.7898 505.739 52.9545C505.472 53.1136 505.259 53.3267 505.1 53.5938C504.941 53.8608 504.861 54.1591 504.861 54.4886C504.861 54.8125 504.938 55.108 505.091 55.375C505.25 55.642 505.463 55.8551 505.731 56.0142C506.003 56.1733 506.302 56.2528 506.625 56.2528ZM506.625 45.821H508.398V44.0568C508.398 43.7273 508.319 43.4318 508.16 43.1705C508 42.9034 507.785 42.6903 507.512 42.5312C507.245 42.3722 506.949 42.2926 506.625 42.2926C506.302 42.2926 506.006 42.3722 505.739 42.5312C505.472 42.6903 505.259 42.9034 505.1 43.1705C504.941 43.4318 504.861 43.7273 504.861 44.0568C504.861 44.3807 504.938 44.679 505.091 44.9517C505.25 45.2188 505.463 45.4318 505.731 45.5909C506.003 45.7443 506.302 45.821 506.625 45.821ZM515.293 45.821H517.057C517.381 45.821 517.677 45.7443 517.944 45.5909C518.211 45.4318 518.421 45.2188 518.574 44.9517C518.733 44.6847 518.813 44.3864 518.813 44.0568C518.813 43.7273 518.733 43.4318 518.574 43.1705C518.421 42.9034 518.211 42.6903 517.944 42.5312C517.677 42.3722 517.381 42.2926 517.057 42.2926C516.728 42.2926 516.429 42.3722 516.162 42.5312C515.895 42.6903 515.682 42.9034 515.523 43.1705C515.37 43.4318 515.293 43.7273 515.293 44.0568V45.821ZM517.057 56.2528C517.381 56.2528 517.677 56.1733 517.944 56.0142C518.211 55.8551 518.421 55.642 518.574 55.375C518.733 55.108 518.813 54.8125 518.813 54.4886C518.813 54.1591 518.733 53.8608 518.574 53.5938C518.421 53.3267 518.211 53.1136 517.944 52.9545C517.677 52.7898 517.381 52.7074 517.057 52.7074H515.293V54.4886C515.293 54.8125 515.37 55.108 515.523 55.375C515.682 55.642 515.895 55.8551 516.162 56.0142C516.429 56.1733 516.728 56.2528 517.057 56.2528ZM510.537 50.5767H513.154V47.9517H510.537V50.5767ZM536.459 58.288C535.339 58.288 534.299 58.08 533.339 57.664C532.379 57.232 531.563 56.648 530.891 55.912C530.219 55.176 529.723 54.328 529.403 53.368L531.803 52.36C532.235 53.464 532.867 54.312 533.699 54.904C534.531 55.496 535.491 55.792 536.579 55.792C537.219 55.792 537.779 55.696 538.259 55.504C538.739 55.296 539.107 55.008 539.363 54.64C539.635 54.272 539.771 53.848 539.771 53.368C539.771 52.712 539.587 52.192 539.219 51.808C538.851 51.424 538.307 51.12 537.587 50.896L534.227 49.84C532.883 49.424 531.859 48.792 531.155 47.944C530.451 47.08 530.099 46.072 530.099 44.92C530.099 43.912 530.347 43.032 530.843 42.28C531.339 41.512 532.019 40.912 532.883 40.48C533.763 40.048 534.763 39.832 535.883 39.832C536.955 39.832 537.931 40.024 538.811 40.408C539.691 40.776 540.443 41.288 541.067 41.944C541.707 42.6 542.171 43.36 542.459 44.224L540.107 45.256C539.755 44.312 539.203 43.584 538.451 43.072C537.715 42.56 536.859 42.304 535.883 42.304C535.291 42.304 534.771 42.408 534.323 42.616C533.875 42.808 533.523 43.096 533.267 43.48C533.027 43.848 532.907 44.28 532.907 44.776C532.907 45.352 533.091 45.864 533.459 46.312C533.827 46.76 534.387 47.096 535.139 47.32L538.259 48.304C539.683 48.736 540.755 49.36 541.475 50.176C542.195 50.976 542.555 51.976 542.555 53.176C542.555 54.168 542.291 55.048 541.763 55.816C541.251 56.584 540.539 57.192 539.627 57.64C538.715 58.072 537.659 58.288 536.459 58.288Z" fill="#9B9C9E"/>
</g>
<defs>
<filter id="filter0_dd_0_73" x="8" y="24" width="88" height="88" filterUnits="userSpaceOnUse" color-interpolation-filters="sRGB">
<feFlood flood-opacity="0" result="BackgroundImageFix"/>
<feColorMatrix in="SourceAlpha" type="matrix" values="0 0 0 0 0 0 0 0 0 0 0 0 0 0 0 0 0 0 127 0" result="hardAlpha"/>
<feMorphology radius="4" operator="erode" in="SourceAlpha" result="effect1_dropShadow_0_73"/>
<feOffset dy="4"/>
<feGaussianBlur stdDeviation="3"/>
<feColorMatrix type="matrix" values="0 0 0 0 0.407843 0 0 0 0 0.419608 0 0 0 0 0.431373 0 0 0 0.16 0"/>
<feBlend mode="normal" in2="BackgroundImageFix" result="effect1_dropShadow_0_73"/>
<feColorMatrix in="SourceAlpha" type="matrix" values="0 0 0 0 0 0 0 0 0 0 0 0 0 0 0 0 0 0 127 0" result="hardAlpha"/>
<feMorphology radius="3" operator="erode" in="SourceAlpha" result="effect2_dropShadow_0_73"/>
<feOffset dy="10"/>
<feGaussianBlur stdDeviation="7.5"/>
<feColorMatrix type="matrix" values="0 0 0 0 0.407843 0 0 0 0 0.419608 0 0 0 0 0.431373 0 0 0 0.16 0"/>
<feBlend mode="normal" in2="effect1_dropShadow_0_73" result="effect2_dropShadow_0_73"/>
<feBlend mode="normal" in="SourceGraphic" in2="effect2_dropShadow_0_73" result="shape"/>
</filter>
<filter id="filter1_dd_0_73" x="478" y="18" width="88" height="64" filterUnits="userSpaceOnUse" color-interpolation-filters="sRGB">
<feFlood flood-opacity="0" result="BackgroundImageFix"/>
<feColorMatrix in="SourceAlpha" type="matrix" values="0 0 0 0 0 0 0 0 0 0 0 0 0 0 0 0 0 0 127 0" result="hardAlpha"/>
<feOffset dy="1"/>
<feGaussianBlur stdDeviation="1.5"/>
<feComposite in2="hardAlpha" operator="out"/>
<feColorMatrix type="matrix" values="0 0 0 0 0 0 0 0 0 0 0 0 0 0 0 0 0 0 0.05 0"/>
<feBlend mode="normal" in2="BackgroundImageFix" result="effect1_dropShadow_0_73"/>
<feColorMatrix in="SourceAlpha" type="matrix" values="0 0 0 0 0 0 0 0 0 0 0 0 0 0 0 0 0 0 127 0" result="hardAlpha"/>
<feMorphology radius="1" operator="erode" in="SourceAlpha" result="effect2_dropShadow_0_73"/>
<feOffset dy="1"/>
<feGaussianBlur stdDeviation="1"/>
<feComposite in2="hardAlpha" operator="out"/>
<feColorMatrix type="matrix" values="0 0 0 0 0 0 0 0 0 0 0 0 0 0 0 0 0 0 0.05 0"/>
<feBlend mode="normal" in2="effect1_dropShadow_0_73" result="effect2_dropShadow_0_73"/>
<feBlend mode="normal" in="SourceGraphic" in2="effect2_dropShadow_0_73" result="shape"/>
</filter>
<linearGradient id="paint0_linear_0_73" x1="462.409" y1="-22.1509" x2="570.442" y2="60.3214" gradientUnits="userSpaceOnUse">
<stop stop-color="#D7EDED"/>
<stop offset="1" stop-color="#CCEBEB" stop-opacity="0"/>
</linearGradient>
</defs>
</svg>
