<svg width="592" height="96" viewBox="0 0 592 96" fill="none" xmlns="http://www.w3.org/2000/svg">
<path d="M52 41.3333V48M52 48V54.6667M52 48H58.6667M52 48H45.3333M67 48C67 56.2843 60.2843 63 52 63C43.7157 63 37 56.2843 37 48C37 39.7157 43.7157 33 52 33C60.2843 33 67 39.7157 67 48Z" stroke="#363A3D" stroke-width="1.5" stroke-linecap="round"/>
<path d="M104.591 60L111.927 39.14H116.015L123.351 60H119.823L118.227 55.324H109.743L108.119 60H104.591ZM110.695 52.384H117.219L113.523 41.464H114.447L110.695 52.384ZM132.271 60.336C130.815 60.336 129.508 59.9907 128.351 59.3C127.212 58.5907 126.307 57.6387 125.635 56.444C124.981 55.2493 124.655 53.9053 124.655 52.412C124.655 50.9187 124.991 49.5747 125.663 48.38C126.335 47.1853 127.24 46.2427 128.379 45.552C129.517 44.8613 130.805 44.516 132.243 44.516C133.456 44.516 134.529 44.7587 135.463 45.244C136.396 45.7293 137.133 46.4013 137.675 47.26L137.199 47.988V38.804H140.335V60H137.339V56.92L137.703 57.508C137.18 58.4227 136.433 59.1227 135.463 59.608C134.492 60.0933 133.428 60.336 132.271 60.336ZM132.579 57.396C133.456 57.396 134.24 57.1813 134.931 56.752C135.64 56.3227 136.191 55.7347 136.583 54.988C136.993 54.2227 137.199 53.364 137.199 52.412C137.199 51.46 136.993 50.6107 136.583 49.864C136.191 49.1173 135.64 48.5293 134.931 48.1C134.24 47.6707 133.456 47.456 132.579 47.456C131.701 47.456 130.908 47.6707 130.199 48.1C129.489 48.5293 128.939 49.1173 128.547 49.864C128.155 50.6107 127.959 51.46 127.959 52.412C127.959 53.364 128.155 54.2227 128.547 54.988C128.939 55.7347 129.48 56.3227 130.171 56.752C130.88 57.1813 131.683 57.396 132.579 57.396ZM151.328 60.336C149.872 60.336 148.566 59.9907 147.408 59.3C146.27 58.5907 145.364 57.6387 144.692 56.444C144.039 55.2493 143.712 53.9053 143.712 52.412C143.712 50.9187 144.048 49.5747 144.72 48.38C145.392 47.1853 146.298 46.2427 147.436 45.552C148.575 44.8613 149.863 44.516 151.3 44.516C152.514 44.516 153.587 44.7587 154.52 45.244C155.454 45.7293 156.191 46.4013 156.732 47.26L156.256 47.988V38.804H159.392V60H156.396V56.92L156.76 57.508C156.238 58.4227 155.491 59.1227 154.52 59.608C153.55 60.0933 152.486 60.336 151.328 60.336ZM151.636 57.396C152.514 57.396 153.298 57.1813 153.988 56.752C154.698 56.3227 155.248 55.7347 155.64 54.988C156.051 54.2227 156.256 53.364 156.256 52.412C156.256 51.46 156.051 50.6107 155.64 49.864C155.248 49.1173 154.698 48.5293 153.988 48.1C153.298 47.6707 152.514 47.456 151.636 47.456C150.759 47.456 149.966 47.6707 149.256 48.1C148.547 48.5293 147.996 49.1173 147.604 49.864C147.212 50.6107 147.016 51.46 147.016 52.412C147.016 53.364 147.212 54.2227 147.604 54.988C147.996 55.7347 148.538 56.3227 149.228 56.752C149.938 57.1813 150.74 57.396 151.636 57.396ZM168.581 60V44.852H171.605V47.82L171.241 47.428C171.614 46.476 172.211 45.7573 173.033 45.272C173.854 44.768 174.806 44.516 175.889 44.516C177.009 44.516 177.998 44.7587 178.857 45.244C179.715 45.7293 180.387 46.4013 180.873 47.26C181.358 48.1187 181.601 49.108 181.601 50.228V60H178.465V51.068C178.465 50.3027 178.325 49.6587 178.045 49.136C177.765 48.5947 177.363 48.184 176.841 47.904C176.337 47.6053 175.758 47.456 175.105 47.456C174.451 47.456 173.863 47.6053 173.341 47.904C172.837 48.184 172.445 48.5947 172.165 49.136C171.885 49.6773 171.745 50.3213 171.745 51.068V60H168.581ZM192.399 60.336C190.887 60.336 189.543 59.9907 188.367 59.3C187.21 58.5907 186.304 57.6387 185.651 56.444C184.998 55.2307 184.671 53.8773 184.671 52.384C184.671 50.8533 184.998 49.5 185.651 48.324C186.323 47.148 187.219 46.224 188.339 45.552C189.459 44.8613 190.728 44.516 192.147 44.516C193.286 44.516 194.303 44.712 195.199 45.104C196.095 45.496 196.851 46.0373 197.467 46.728C198.083 47.4 198.55 48.1747 198.867 49.052C199.203 49.9293 199.371 50.8627 199.371 51.852C199.371 52.0947 199.362 52.3467 199.343 52.608C199.324 52.8693 199.287 53.112 199.231 53.336H187.163V50.816H197.439L195.927 51.964C196.114 51.0493 196.048 50.2373 195.731 49.528C195.432 48.8 194.966 48.2307 194.331 47.82C193.715 47.3907 192.987 47.176 192.147 47.176C191.307 47.176 190.56 47.3907 189.907 47.82C189.254 48.2307 188.75 48.828 188.395 49.612C188.04 50.3773 187.9 51.3107 187.975 52.412C187.882 53.4387 188.022 54.3347 188.395 55.1C188.787 55.8653 189.328 56.4627 190.019 56.892C190.728 57.3213 191.531 57.536 192.427 57.536C193.342 57.536 194.116 57.3307 194.751 56.92C195.404 56.5093 195.918 55.9773 196.291 55.324L198.867 56.584C198.568 57.2933 198.102 57.9373 197.467 58.516C196.851 59.076 196.104 59.524 195.227 59.86C194.368 60.1773 193.426 60.336 192.399 60.336ZM206.427 60L201.219 44.852H204.579L208.555 56.92H207.379L211.439 44.852H214.323L218.355 56.92H217.179L221.183 44.852H224.543L219.307 60H216.451L212.363 47.652H213.399L209.311 60H206.427ZM232.207 65.6V44.852H235.231V47.988L234.867 47.26C235.427 46.4013 236.173 45.7293 237.107 45.244C238.04 44.7587 239.104 44.516 240.299 44.516C241.736 44.516 243.024 44.8613 244.163 45.552C245.32 46.2427 246.225 47.1853 246.879 48.38C247.551 49.5747 247.887 50.9187 247.887 52.412C247.887 53.9053 247.551 55.2493 246.879 56.444C246.225 57.6387 245.329 58.5907 244.191 59.3C243.052 59.9907 241.755 60.336 240.299 60.336C239.123 60.336 238.049 60.0933 237.079 59.608C236.127 59.1227 235.389 58.4227 234.867 57.508L235.371 56.92V65.6H232.207ZM239.991 57.396C240.887 57.396 241.68 57.1813 242.371 56.752C243.061 56.3227 243.603 55.7347 243.995 54.988C244.405 54.2227 244.611 53.364 244.611 52.412C244.611 51.46 244.405 50.6107 243.995 49.864C243.603 49.1173 243.061 48.5293 242.371 48.1C241.68 47.6707 240.887 47.456 239.991 47.456C239.113 47.456 238.32 47.6707 237.611 48.1C236.92 48.5293 236.369 49.1173 235.959 49.864C235.567 50.6107 235.371 51.46 235.371 52.412C235.371 53.364 235.567 54.2227 235.959 54.988C236.369 55.7347 236.92 56.3227 237.611 56.752C238.32 57.1813 239.113 57.396 239.991 57.396ZM251.264 60V44.852H254.288V47.904L254.008 47.456C254.344 46.4667 254.886 45.7573 255.632 45.328C256.379 44.88 257.275 44.656 258.32 44.656H259.244V47.54H257.928C256.883 47.54 256.034 47.8667 255.38 48.52C254.746 49.1547 254.428 50.0693 254.428 51.264V60H251.264ZM269.017 60.336C267.561 60.336 266.226 59.9907 265.013 59.3C263.818 58.6093 262.866 57.6667 262.157 56.472C261.448 55.2773 261.093 53.924 261.093 52.412C261.093 50.8813 261.448 49.528 262.157 48.352C262.866 47.1573 263.818 46.224 265.013 45.552C266.208 44.8613 267.542 44.516 269.017 44.516C270.51 44.516 271.845 44.8613 273.021 45.552C274.216 46.224 275.158 47.1573 275.849 48.352C276.558 49.528 276.913 50.8813 276.913 52.412C276.913 53.9427 276.558 55.3053 275.849 56.5C275.14 57.6947 274.188 58.6373 272.993 59.328C271.798 60 270.473 60.336 269.017 60.336ZM269.017 57.396C269.913 57.396 270.706 57.1813 271.397 56.752C272.088 56.3227 272.629 55.7347 273.021 54.988C273.432 54.2227 273.637 53.364 273.637 52.412C273.637 51.46 273.432 50.6107 273.021 49.864C272.629 49.1173 272.088 48.5293 271.397 48.1C270.706 47.6707 269.913 47.456 269.017 47.456C268.14 47.456 267.346 47.6707 266.637 48.1C265.946 48.5293 265.396 49.1173 264.985 49.864C264.593 50.6107 264.397 51.46 264.397 52.412C264.397 53.364 264.593 54.2227 264.985 54.988C265.396 55.7347 265.946 56.3227 266.637 56.752C267.346 57.1813 268.14 57.396 269.017 57.396ZM277.978 66.188C277.773 66.188 277.549 66.1693 277.306 66.132C277.045 66.1133 276.83 66.0853 276.662 66.048V63.304C277.017 63.36 277.371 63.388 277.726 63.388C278.51 63.388 279.135 63.1827 279.602 62.772C280.069 62.38 280.302 61.7827 280.302 60.98V44.852H283.466V60.98C283.466 62.0813 283.233 63.024 282.766 63.808C282.299 64.592 281.655 65.18 280.834 65.572C280.013 65.9827 279.061 66.188 277.978 66.188ZM280.302 42.78V39.14H283.466V42.78H280.302ZM294.577 60.336C293.065 60.336 291.721 59.9907 290.545 59.3C289.388 58.5907 288.483 57.6387 287.829 56.444C287.176 55.2307 286.849 53.8773 286.849 52.384C286.849 50.8533 287.176 49.5 287.829 48.324C288.501 47.148 289.397 46.224 290.517 45.552C291.637 44.8613 292.907 44.516 294.325 44.516C295.464 44.516 296.481 44.712 297.377 45.104C298.273 45.496 299.029 46.0373 299.645 46.728C300.261 47.4 300.728 48.1747 301.045 49.052C301.381 49.9293 301.549 50.8627 301.549 51.852C301.549 52.0947 301.54 52.3467 301.521 52.608C301.503 52.8693 301.465 53.112 301.409 53.336H289.341V50.816H299.617L298.105 51.964C298.292 51.0493 298.227 50.2373 297.909 49.528C297.611 48.8 297.144 48.2307 296.509 47.82C295.893 47.3907 295.165 47.176 294.325 47.176C293.485 47.176 292.739 47.3907 292.085 47.82C291.432 48.2307 290.928 48.828 290.573 49.612C290.219 50.3773 290.079 51.3107 290.153 52.412C290.06 53.4387 290.2 54.3347 290.573 55.1C290.965 55.8653 291.507 56.4627 292.197 56.892C292.907 57.3213 293.709 57.536 294.605 57.536C295.52 57.536 296.295 57.3307 296.929 56.92C297.583 56.5093 298.096 55.9773 298.469 55.324L301.045 56.584C300.747 57.2933 300.28 57.9373 299.645 58.516C299.029 59.076 298.283 59.524 297.405 59.86C296.547 60.1773 295.604 60.336 294.577 60.336ZM312.133 60.336C310.621 60.336 309.277 59.9907 308.101 59.3C306.944 58.5907 306.02 57.6387 305.329 56.444C304.657 55.2493 304.321 53.896 304.321 52.384C304.321 50.8907 304.657 49.5467 305.329 48.352C306.001 47.1573 306.925 46.224 308.101 45.552C309.277 44.8613 310.621 44.516 312.133 44.516C313.16 44.516 314.121 44.7027 315.017 45.076C315.913 45.4307 316.688 45.9253 317.341 46.56C318.013 47.1947 318.508 47.932 318.825 48.772L316.053 50.06C315.736 49.276 315.222 48.6507 314.513 48.184C313.822 47.6987 313.029 47.456 312.133 47.456C311.274 47.456 310.5 47.6707 309.809 48.1C309.137 48.5107 308.605 49.0987 308.213 49.864C307.821 50.6107 307.625 51.46 307.625 52.412C307.625 53.364 307.821 54.2227 308.213 54.988C308.605 55.7347 309.137 56.3227 309.809 56.752C310.5 57.1813 311.274 57.396 312.133 57.396C313.048 57.396 313.841 57.1627 314.513 56.696C315.204 56.2107 315.717 55.5667 316.053 54.764L318.825 56.08C318.526 56.8827 318.041 57.6107 317.369 58.264C316.716 58.8987 315.941 59.4027 315.045 59.776C314.149 60.1493 313.178 60.336 312.133 60.336ZM328.77 60.168C327.183 60.168 325.951 59.72 325.074 58.824C324.196 57.928 323.758 56.668 323.758 55.044V47.708H321.098V44.852H321.518C322.227 44.852 322.778 44.6467 323.17 44.236C323.562 43.8253 323.758 43.2653 323.758 42.556V41.38H326.922V44.852H330.366V47.708H326.922V54.904C326.922 55.4267 327.006 55.8747 327.174 56.248C327.342 56.6027 327.612 56.8827 327.986 57.088C328.359 57.2747 328.844 57.368 329.442 57.368C329.591 57.368 329.759 57.3587 329.946 57.34C330.132 57.3213 330.31 57.3027 330.478 57.284V60C330.216 60.0373 329.927 60.0747 329.61 60.112C329.292 60.1493 329.012 60.168 328.77 60.168Z" fill="#686B6E"/>
</svg>
