<svg width="592" height="106" viewBox="0 0 592 106" fill="none" xmlns="http://www.w3.org/2000/svg">
<g filter="url(#filter0_dd_0_80)">
<path d="M37 42.1668V39.6668C37 37.8259 38.4924 36.3335 40.3333 36.3335H63.6667C65.5076 36.3335 67 37.8259 67 39.6668V42.1668M37 42.1668H67M37 42.1668V56.3335C37 58.1744 38.4924 59.6668 40.3333 59.6668H63.6667C65.5076 59.6668 67 58.1744 67 56.3335V42.1668M42 54.6668H48.6667" stroke="#686B6E" stroke-width="1.5" stroke-linecap="round"/>
</g>
<path d="M106.459 60V39.14H115.251C116.558 39.14 117.687 39.3733 118.639 39.84C119.591 40.288 120.319 40.9413 120.823 41.8C121.327 42.64 121.579 43.6387 121.579 44.796C121.579 45.804 121.318 46.728 120.795 47.568C120.291 48.3893 119.498 49.0427 118.415 49.528V48.128C119.367 48.5013 120.142 48.9773 120.739 49.556C121.336 50.116 121.766 50.7507 122.027 51.46C122.307 52.1693 122.447 52.916 122.447 53.7C122.447 55.66 121.803 57.2 120.515 58.32C119.246 59.44 117.5 60 115.279 60H106.459ZM109.763 57.06H115.531C116.632 57.06 117.51 56.7613 118.163 56.164C118.816 55.548 119.143 54.736 119.143 53.728C119.143 52.7013 118.816 51.8893 118.163 51.292C117.51 50.676 116.632 50.368 115.531 50.368H109.763V57.06ZM109.763 47.456H115.335C116.231 47.456 116.95 47.204 117.491 46.7C118.032 46.1773 118.303 45.496 118.303 44.656C118.303 43.816 118.032 43.1627 117.491 42.696C116.95 42.2293 116.231 41.996 115.335 41.996H109.763V47.456ZM125.838 60V44.852H129.002V60H125.838ZM125.838 42.78V39.14H129.002V42.78H125.838ZM133.001 60V38.804H136.165V60H133.001ZM140.164 60V38.804H143.328V60H140.164ZM147.328 60V44.852H150.492V60H147.328ZM147.328 42.78V39.14H150.492V42.78H147.328ZM154.491 60V44.852H157.515V47.82L157.151 47.428C157.524 46.476 158.122 45.7573 158.943 45.272C159.764 44.768 160.716 44.516 161.799 44.516C162.919 44.516 163.908 44.7587 164.767 45.244C165.626 45.7293 166.298 46.4013 166.783 47.26C167.268 48.1187 167.511 49.108 167.511 50.228V60H164.375V51.068C164.375 50.3027 164.235 49.6587 163.955 49.136C163.675 48.5947 163.274 48.184 162.751 47.904C162.247 47.6053 161.668 47.456 161.015 47.456C160.362 47.456 159.774 47.6053 159.251 47.904C158.747 48.184 158.355 48.5947 158.075 49.136C157.795 49.6773 157.655 50.3213 157.655 51.068V60H154.491ZM178.505 66.16C177.404 66.16 176.387 65.9827 175.453 65.628C174.52 65.2733 173.717 64.7787 173.045 64.144C172.373 63.528 171.869 62.8 171.533 61.96L174.445 60.756C174.707 61.4653 175.183 62.0533 175.873 62.52C176.583 62.9867 177.451 63.22 178.477 63.22C179.28 63.22 179.999 63.0613 180.633 62.744C181.268 62.4453 181.772 61.9973 182.145 61.4C182.519 60.8213 182.705 60.1213 182.705 59.3V55.884L183.265 56.528C182.743 57.4987 182.015 58.236 181.081 58.74C180.167 59.244 179.131 59.496 177.973 59.496C176.573 59.496 175.313 59.1693 174.193 58.516C173.073 57.8627 172.187 56.9667 171.533 55.828C170.899 54.6893 170.581 53.4107 170.581 51.992C170.581 50.5547 170.899 49.276 171.533 48.156C172.187 47.036 173.064 46.1493 174.165 45.496C175.267 44.8427 176.527 44.516 177.945 44.516C179.103 44.516 180.129 44.768 181.025 45.272C181.94 45.7573 182.687 46.4667 183.265 47.4L182.845 48.184V44.852H185.841V59.3C185.841 60.6067 185.524 61.7733 184.889 62.8C184.273 63.8453 183.415 64.6667 182.313 65.264C181.212 65.8613 179.943 66.16 178.505 66.16ZM178.337 56.556C179.177 56.556 179.924 56.36 180.577 55.968C181.231 55.5573 181.744 55.016 182.117 54.344C182.509 53.6533 182.705 52.8787 182.705 52.02C182.705 51.1613 182.509 50.3867 182.117 49.696C181.725 49.0053 181.203 48.464 180.549 48.072C179.896 47.6613 179.159 47.456 178.337 47.456C177.479 47.456 176.713 47.6613 176.041 48.072C175.369 48.464 174.837 49.0053 174.445 49.696C174.072 50.368 173.885 51.1427 173.885 52.02C173.885 52.86 174.072 53.6253 174.445 54.316C174.837 55.0067 175.369 55.5573 176.041 55.968C176.713 56.36 177.479 56.556 178.337 56.556Z" fill="#E8E9E9"/>
<defs>
<filter id="filter0_dd_0_80" x="8" y="24" width="88" height="88" filterUnits="userSpaceOnUse" color-interpolation-filters="sRGB">
<feFlood flood-opacity="0" result="BackgroundImageFix"/>
<feColorMatrix in="SourceAlpha" type="matrix" values="0 0 0 0 0 0 0 0 0 0 0 0 0 0 0 0 0 0 127 0" result="hardAlpha"/>
<feMorphology radius="4" operator="erode" in="SourceAlpha" result="effect1_dropShadow_0_80"/>
<feOffset dy="4"/>
<feGaussianBlur stdDeviation="3"/>
<feColorMatrix type="matrix" values="0 0 0 0 0.407843 0 0 0 0 0.419608 0 0 0 0 0.431373 0 0 0 0.16 0"/>
<feBlend mode="normal" in2="BackgroundImageFix" result="effect1_dropShadow_0_80"/>
<feColorMatrix in="SourceAlpha" type="matrix" values="0 0 0 0 0 0 0 0 0 0 0 0 0 0 0 0 0 0 127 0" result="hardAlpha"/>
<feMorphology radius="3" operator="erode" in="SourceAlpha" result="effect2_dropShadow_0_80"/>
<feOffset dy="10"/>
<feGaussianBlur stdDeviation="7.5"/>
<feColorMatrix type="matrix" values="0 0 0 0 0.407843 0 0 0 0 0.419608 0 0 0 0 0.431373 0 0 0 0.16 0"/>
<feBlend mode="normal" in2="effect1_dropShadow_0_80" result="effect2_dropShadow_0_80"/>
<feBlend mode="normal" in="SourceGraphic" in2="effect2_dropShadow_0_80" result="shape"/>
</filter>
</defs>
</svg>
