<svg width="592" height="109" viewBox="0 0 592 109" fill="none" xmlns="http://www.w3.org/2000/svg">
<path d="M0 16C0 7.16345 7.16344 0 16 0H576C584.837 0 592 7.16344 592 16V80C592 88.8366 584.837 96 576 96H16C7.16343 96 0 88.8366 0 80V16Z" fill="url(#paint0_linear_0_91)" fill-opacity="0.16"/>
<g filter="url(#filter0_dd_0_91)">
<rect x="37" y="33" width="30" height="30" rx="3" stroke="#B6F09C" stroke-width="1.5" stroke-linecap="round"/>
</g>
<path d="M116.7 60.336C115.188 60.336 113.778 60.0653 112.472 59.524C111.184 58.9827 110.045 58.2267 109.056 57.256C108.085 56.2853 107.32 55.1467 106.76 53.84C106.218 52.5333 105.948 51.1053 105.948 49.556C105.948 48.0067 106.218 46.5787 106.76 45.272C107.32 43.9467 108.085 42.808 109.056 41.856C110.026 40.8853 111.165 40.1387 112.472 39.616C113.778 39.0747 115.188 38.804 116.7 38.804C118.23 38.804 119.64 39.0747 120.928 39.616C122.234 40.1387 123.373 40.8853 124.344 41.856C125.333 42.8267 126.098 43.9653 126.64 45.272C127.181 46.5787 127.452 48.0067 127.452 49.556C127.452 51.1053 127.172 52.5333 126.612 53.84C126.07 55.1467 125.314 56.2853 124.344 57.256C123.373 58.2267 122.234 58.9827 120.928 59.524C119.621 60.0653 118.212 60.336 116.7 60.336ZM116.7 57.312C117.782 57.312 118.772 57.116 119.668 56.724C120.582 56.332 121.376 55.7907 122.048 55.1C122.72 54.3907 123.242 53.5693 123.616 52.636C123.989 51.684 124.176 50.6573 124.176 49.556C124.176 48.4547 123.989 47.4373 123.616 46.504C123.242 45.5707 122.72 44.7493 122.048 44.04C121.376 43.3307 120.582 42.78 119.668 42.388C118.772 41.996 117.782 41.8 116.7 41.8C115.617 41.8 114.618 41.996 113.704 42.388C112.808 42.78 112.024 43.3307 111.352 44.04C110.68 44.7493 110.157 45.5707 109.784 46.504C109.429 47.4373 109.252 48.4547 109.252 49.556C109.252 50.6573 109.429 51.684 109.784 52.636C110.157 53.5693 110.68 54.3907 111.352 55.1C112.024 55.7907 112.817 56.332 113.732 56.724C114.646 57.116 115.636 57.312 116.7 57.312ZM131.138 60V44.852H134.162V47.904L133.882 47.456C134.218 46.4667 134.759 45.7573 135.506 45.328C136.253 44.88 137.149 44.656 138.194 44.656H139.118V47.54H137.802C136.757 47.54 135.907 47.8667 135.254 48.52C134.619 49.1547 134.302 50.0693 134.302 51.264V60H131.138ZM149.674 60.336C148.498 60.336 147.425 60.0933 146.454 59.608C145.502 59.1227 144.765 58.4227 144.242 57.508L144.606 56.92V60H141.582V38.804H144.746V47.988L144.242 47.26C144.802 46.4013 145.549 45.7293 146.482 45.244C147.416 44.7587 148.48 44.516 149.674 44.516C151.112 44.516 152.4 44.8613 153.538 45.552C154.696 46.2427 155.601 47.1853 156.254 48.38C156.926 49.5747 157.262 50.9187 157.262 52.412C157.262 53.9053 156.926 55.2493 156.254 56.444C155.601 57.6387 154.705 58.5907 153.566 59.3C152.428 59.9907 151.13 60.336 149.674 60.336ZM149.366 57.396C150.262 57.396 151.056 57.1813 151.746 56.752C152.437 56.3227 152.978 55.7347 153.37 54.988C153.781 54.2227 153.986 53.364 153.986 52.412C153.986 51.46 153.781 50.6107 153.37 49.864C152.978 49.1173 152.437 48.5293 151.746 48.1C151.056 47.6707 150.262 47.456 149.366 47.456C148.489 47.456 147.696 47.6707 146.986 48.1C146.296 48.5293 145.745 49.1173 145.334 49.864C144.942 50.6107 144.746 51.46 144.746 52.412C144.746 53.364 144.942 54.2227 145.334 54.988C145.745 55.7347 146.296 56.3227 146.986 56.752C147.696 57.1813 148.489 57.396 149.366 57.396ZM160.64 60V44.852H163.804V60H160.64ZM160.64 42.78V39.14H163.804V42.78H160.64ZM174.355 60.168C172.769 60.168 171.537 59.72 170.659 58.824C169.782 57.928 169.343 56.668 169.343 55.044V47.708H166.683V44.852H167.103C167.813 44.852 168.363 44.6467 168.755 44.236C169.147 43.8253 169.343 43.2653 169.343 42.556V41.38H172.507V44.852H175.951V47.708H172.507V54.904C172.507 55.4267 172.591 55.8747 172.759 56.248C172.927 56.6027 173.198 56.8827 173.571 57.088C173.945 57.2747 174.43 57.368 175.027 57.368C175.177 57.368 175.345 57.3587 175.531 57.34C175.718 57.3213 175.895 57.3027 176.063 57.284V60C175.802 60.0373 175.513 60.0747 175.195 60.112C174.878 60.1493 174.598 60.168 174.355 60.168ZM183.85 60.336C182.824 60.336 181.918 60.1587 181.134 59.804C180.369 59.4307 179.772 58.9267 179.342 58.292C178.913 57.6387 178.698 56.8733 178.698 55.996C178.698 55.1747 178.876 54.4373 179.23 53.784C179.604 53.1307 180.173 52.58 180.938 52.132C181.704 51.684 182.665 51.3667 183.822 51.18L189.086 50.312V52.804L184.438 53.616C183.598 53.7653 182.982 54.036 182.59 54.428C182.198 54.8013 182.002 55.2867 182.002 55.884C182.002 56.4627 182.217 56.9387 182.646 57.312C183.094 57.6667 183.664 57.844 184.354 57.844C185.213 57.844 185.96 57.6573 186.594 57.284C187.248 56.9107 187.752 56.416 188.106 55.8C188.461 55.1653 188.638 54.4653 188.638 53.7V49.808C188.638 49.0613 188.358 48.4547 187.798 47.988C187.257 47.5027 186.529 47.26 185.614 47.26C184.774 47.26 184.037 47.484 183.402 47.932C182.786 48.3613 182.329 48.9213 182.03 49.612L179.398 48.296C179.678 47.5493 180.136 46.896 180.77 46.336C181.405 45.7573 182.142 45.3093 182.982 44.992C183.841 44.6747 184.746 44.516 185.698 44.516C186.893 44.516 187.948 44.74 188.862 45.188C189.796 45.636 190.514 46.2613 191.018 47.064C191.541 47.848 191.802 48.7627 191.802 49.808V60H188.778V57.256L189.422 57.34C189.068 57.956 188.61 58.488 188.05 58.936C187.509 59.384 186.884 59.7293 186.174 59.972C185.484 60.2147 184.709 60.336 183.85 60.336ZM195.802 60V38.804H198.966V60H195.802ZM218.604 60.336C217.092 60.336 215.682 60.0653 214.376 59.524C213.088 58.9827 211.949 58.2267 210.96 57.256C209.989 56.2853 209.224 55.1467 208.664 53.84C208.122 52.5333 207.852 51.1053 207.852 49.556C207.852 48.0067 208.122 46.5787 208.664 45.272C209.224 43.9467 209.989 42.808 210.96 41.856C211.93 40.8853 213.069 40.1387 214.376 39.616C215.682 39.0747 217.092 38.804 218.604 38.804C220.134 38.804 221.544 39.0747 222.832 39.616C224.138 40.1387 225.277 40.8853 226.248 41.856C227.237 42.8267 228.002 43.9653 228.544 45.272C229.085 46.5787 229.356 48.0067 229.356 49.556C229.356 51.1053 229.076 52.5333 228.516 53.84C227.974 55.1467 227.218 56.2853 226.248 57.256C225.277 58.2267 224.138 58.9827 222.832 59.524C221.525 60.0653 220.116 60.336 218.604 60.336ZM218.604 57.312C219.686 57.312 220.676 57.116 221.572 56.724C222.486 56.332 223.28 55.7907 223.952 55.1C224.624 54.3907 225.146 53.5693 225.52 52.636C225.893 51.684 226.08 50.6573 226.08 49.556C226.08 48.4547 225.893 47.4373 225.52 46.504C225.146 45.5707 224.624 44.7493 223.952 44.04C223.28 43.3307 222.486 42.78 221.572 42.388C220.676 41.996 219.686 41.8 218.604 41.8C217.521 41.8 216.522 41.996 215.608 42.388C214.712 42.78 213.928 43.3307 213.256 44.04C212.584 44.7493 212.061 45.5707 211.688 46.504C211.333 47.4373 211.156 48.4547 211.156 49.556C211.156 50.6573 211.333 51.684 211.688 52.636C212.061 53.5693 212.584 54.3907 213.256 55.1C213.928 55.7907 214.721 56.332 215.636 56.724C216.55 57.116 217.54 57.312 218.604 57.312ZM240.042 60.336C238.586 60.336 237.279 59.9907 236.122 59.3C234.983 58.5907 234.078 57.6387 233.406 56.444C232.752 55.2493 232.426 53.9053 232.426 52.412C232.426 50.9187 232.762 49.5747 233.434 48.38C234.106 47.1853 235.011 46.2427 236.15 45.552C237.288 44.8613 238.576 44.516 240.014 44.516C241.227 44.516 242.3 44.7587 243.234 45.244C244.167 45.7293 244.904 46.4013 245.446 47.26L244.97 47.988V38.804H248.106V60H245.11V56.92L245.474 57.508C244.951 58.4227 244.204 59.1227 243.234 59.608C242.263 60.0933 241.199 60.336 240.042 60.336ZM240.35 57.396C241.227 57.396 242.011 57.1813 242.702 56.752C243.411 56.3227 243.962 55.7347 244.354 54.988C244.764 54.2227 244.97 53.364 244.97 52.412C244.97 51.46 244.764 50.6107 244.354 49.864C243.962 49.1173 243.411 48.5293 242.702 48.1C242.011 47.6707 241.227 47.456 240.35 47.456C239.472 47.456 238.679 47.6707 237.97 48.1C237.26 48.5293 236.71 49.1173 236.318 49.864C235.926 50.6107 235.73 51.46 235.73 52.412C235.73 53.364 235.926 54.2227 236.318 54.988C236.71 55.7347 237.251 56.3227 237.942 56.752C238.651 57.1813 239.454 57.396 240.35 57.396ZM259.1 60.336C257.644 60.336 256.337 59.9907 255.18 59.3C254.041 58.5907 253.136 57.6387 252.464 56.444C251.81 55.2493 251.484 53.9053 251.484 52.412C251.484 50.9187 251.82 49.5747 252.492 48.38C253.164 47.1853 254.069 46.2427 255.208 45.552C256.346 44.8613 257.634 44.516 259.072 44.516C260.285 44.516 261.358 44.7587 262.292 45.244C263.225 45.7293 263.962 46.4013 264.504 47.26L264.028 47.988V38.804H267.164V60H264.168V56.92L264.532 57.508C264.009 58.4227 263.262 59.1227 262.292 59.608C261.321 60.0933 260.257 60.336 259.1 60.336ZM259.408 57.396C260.285 57.396 261.069 57.1813 261.76 56.752C262.469 56.3227 263.02 55.7347 263.412 54.988C263.822 54.2227 264.028 53.364 264.028 52.412C264.028 51.46 263.822 50.6107 263.412 49.864C263.02 49.1173 262.469 48.5293 261.76 48.1C261.069 47.6707 260.285 47.456 259.408 47.456C258.53 47.456 257.737 47.6707 257.028 48.1C256.318 48.5293 255.768 49.1173 255.376 49.864C254.984 50.6107 254.788 51.46 254.788 52.412C254.788 53.364 254.984 54.2227 255.376 54.988C255.768 55.7347 256.309 56.3227 257 56.752C257.709 57.1813 258.512 57.396 259.408 57.396ZM272.501 66.16C272.128 66.16 271.755 66.1227 271.381 66.048C271.027 65.992 270.7 65.8987 270.401 65.768V63.052C270.625 63.108 270.896 63.1547 271.213 63.192C271.531 63.248 271.839 63.276 272.137 63.276C273.015 63.276 273.659 63.08 274.069 62.688C274.499 62.3147 274.881 61.736 275.217 60.952L276.225 58.656L276.169 61.316L269.617 44.852H273.005L277.849 57.48H276.701L281.517 44.852H284.933L278.241 61.652C277.887 62.548 277.439 63.332 276.897 64.004C276.375 64.6947 275.749 65.2267 275.021 65.6C274.312 65.9733 273.472 66.16 272.501 66.16ZM292.999 60.336C291.449 60.336 290.087 59.9533 288.911 59.188C287.753 58.4227 286.941 57.396 286.475 56.108L288.911 54.96C289.321 55.8187 289.881 56.5 290.591 57.004C291.319 57.508 292.121 57.76 292.999 57.76C293.745 57.76 294.352 57.592 294.819 57.256C295.285 56.92 295.519 56.4627 295.519 55.884C295.519 55.5107 295.416 55.212 295.211 54.988C295.005 54.7453 294.744 54.5493 294.427 54.4C294.128 54.2507 293.82 54.1387 293.503 54.064L291.123 53.392C289.816 53.0187 288.836 52.4587 288.183 51.712C287.548 50.9467 287.231 50.06 287.231 49.052C287.231 48.1373 287.464 47.344 287.931 46.672C288.397 45.9813 289.041 45.4493 289.863 45.076C290.684 44.7027 291.608 44.516 292.635 44.516C294.016 44.516 295.248 44.8613 296.331 45.552C297.413 46.224 298.179 47.1667 298.627 48.38L296.191 49.528C295.892 48.8 295.416 48.2213 294.763 47.792C294.128 47.3627 293.409 47.148 292.607 47.148C291.916 47.148 291.365 47.316 290.955 47.652C290.544 47.9693 290.339 48.3893 290.339 48.912C290.339 49.2667 290.432 49.5653 290.619 49.808C290.805 50.032 291.048 50.2187 291.347 50.368C291.645 50.4987 291.953 50.6107 292.271 50.704L294.735 51.432C295.985 51.7867 296.947 52.3467 297.619 53.112C298.291 53.8587 298.627 54.7547 298.627 55.8C298.627 56.696 298.384 57.4893 297.899 58.18C297.432 58.852 296.779 59.384 295.939 59.776C295.099 60.1493 294.119 60.336 292.999 60.336ZM309.139 60.336C307.627 60.336 306.283 59.9907 305.107 59.3C303.95 58.5907 303.044 57.6387 302.391 56.444C301.738 55.2307 301.411 53.8773 301.411 52.384C301.411 50.8533 301.738 49.5 302.391 48.324C303.063 47.148 303.959 46.224 305.079 45.552C306.199 44.8613 307.468 44.516 308.887 44.516C310.026 44.516 311.043 44.712 311.939 45.104C312.835 45.496 313.591 46.0373 314.207 46.728C314.823 47.4 315.29 48.1747 315.607 49.052C315.943 49.9293 316.111 50.8627 316.111 51.852C316.111 52.0947 316.102 52.3467 316.083 52.608C316.064 52.8693 316.027 53.112 315.971 53.336H303.903V50.816H314.179L312.667 51.964C312.854 51.0493 312.788 50.2373 312.471 49.528C312.172 48.8 311.706 48.2307 311.071 47.82C310.455 47.3907 309.727 47.176 308.887 47.176C308.047 47.176 307.3 47.3907 306.647 47.82C305.994 48.2307 305.49 48.828 305.135 49.612C304.78 50.3773 304.64 51.3107 304.715 52.412C304.622 53.4387 304.762 54.3347 305.135 55.1C305.527 55.8653 306.068 56.4627 306.759 56.892C307.468 57.3213 308.271 57.536 309.167 57.536C310.082 57.536 310.856 57.3307 311.491 56.92C312.144 56.5093 312.658 55.9773 313.031 55.324L315.607 56.584C315.308 57.2933 314.842 57.9373 314.207 58.516C313.591 59.076 312.844 59.524 311.967 59.86C311.108 60.1773 310.166 60.336 309.139 60.336ZM320.843 66.16C320.469 66.16 320.096 66.1227 319.723 66.048C319.368 65.992 319.041 65.8987 318.743 65.768V63.052C318.967 63.108 319.237 63.1547 319.555 63.192C319.872 63.248 320.18 63.276 320.479 63.276C321.356 63.276 322 63.08 322.411 62.688C322.84 62.3147 323.223 61.736 323.559 60.952L324.567 58.656L324.511 61.316L317.959 44.852H321.347L326.191 57.48H325.043L329.859 44.852H333.275L326.583 61.652C326.228 62.548 325.78 63.332 325.239 64.004C324.716 64.6947 324.091 65.2267 323.363 65.6C322.653 65.9733 321.813 66.16 320.843 66.16Z" fill="#E8E9E9"/>
<defs>
<filter id="filter0_dd_0_91" x="8" y="24" width="88" height="88" filterUnits="userSpaceOnUse" color-interpolation-filters="sRGB">
<feFlood flood-opacity="0" result="BackgroundImageFix"/>
<feColorMatrix in="SourceAlpha" type="matrix" values="0 0 0 0 0 0 0 0 0 0 0 0 0 0 0 0 0 0 127 0" result="hardAlpha"/>
<feMorphology radius="4" operator="erode" in="SourceAlpha" result="effect1_dropShadow_0_91"/>
<feOffset dy="4"/>
<feGaussianBlur stdDeviation="3"/>
<feColorMatrix type="matrix" values="0 0 0 0 0.713726 0 0 0 0 0.941176 0 0 0 0 0.611765 0 0 0 0.16 0"/>
<feBlend mode="normal" in2="BackgroundImageFix" result="effect1_dropShadow_0_91"/>
<feColorMatrix in="SourceAlpha" type="matrix" values="0 0 0 0 0 0 0 0 0 0 0 0 0 0 0 0 0 0 127 0" result="hardAlpha"/>
<feMorphology radius="3" operator="erode" in="SourceAlpha" result="effect2_dropShadow_0_91"/>
<feOffset dy="10"/>
<feGaussianBlur stdDeviation="7.5"/>
<feColorMatrix type="matrix" values="0 0 0 0 0.713726 0 0 0 0 0.941176 0 0 0 0 0.611765 0 0 0 0.16 0"/>
<feBlend mode="normal" in2="effect1_dropShadow_0_91" result="effect2_dropShadow_0_91"/>
<feBlend mode="normal" in="SourceGraphic" in2="effect2_dropShadow_0_91" result="shape"/>
</filter>
<linearGradient id="paint0_linear_0_91" x1="-168.182" y1="-81.5094" x2="-51.0868" y2="295.654" gradientUnits="userSpaceOnUse">
<stop stop-color="#D7EDED"/>
<stop offset="1" stop-color="#CCEBEB" stop-opacity="0"/>
</linearGradient>
</defs>
</svg>
