<svg width="592" height="109" viewBox="0 0 592 109" fill="none" xmlns="http://www.w3.org/2000/svg">
<g filter="url(#filter0_dd_0_98)">
<path d="M43.8144 62.9998H60.1858C64.7494 62.9998 67.6424 58.107 65.4431 54.1083L55.5049 36.039C53.9852 33.2759 50.0149 33.2759 48.4952 36.039L38.5571 54.1083C36.3578 58.107 39.2508 62.9998 43.8144 62.9998Z" stroke="#D0302F" stroke-width="1.5" stroke-linecap="round"/>
</g>
<path d="M106.811 60V39.14H113.643C115.808 39.14 117.684 39.5787 119.271 40.456C120.876 41.3147 122.117 42.528 122.995 44.096C123.872 45.664 124.311 47.484 124.311 49.556C124.311 51.6093 123.872 53.4293 122.995 55.016C122.117 56.584 120.876 57.8067 119.271 58.684C117.684 59.5613 115.808 60 113.643 60H106.811ZM110.115 57.06H113.699C115.173 57.06 116.452 56.752 117.535 56.136C118.636 55.52 119.485 54.652 120.083 53.532C120.68 52.412 120.979 51.0867 120.979 49.556C120.979 48.0253 120.671 46.7093 120.055 45.608C119.457 44.488 118.617 43.62 117.535 43.004C116.452 42.388 115.173 42.08 113.699 42.08H110.115V57.06ZM127.557 60V44.852H130.721V60H127.557ZM127.557 42.78V39.14H130.721V42.78H127.557ZM142.028 66.16C140.927 66.16 139.909 65.9827 138.976 65.628C138.043 65.2733 137.24 64.7787 136.568 64.144C135.896 63.528 135.392 62.8 135.056 61.96L137.968 60.756C138.229 61.4653 138.705 62.0533 139.396 62.52C140.105 62.9867 140.973 63.22 142 63.22C142.803 63.22 143.521 63.0613 144.156 62.744C144.791 62.4453 145.295 61.9973 145.668 61.4C146.041 60.8213 146.228 60.1213 146.228 59.3V55.884L146.788 56.528C146.265 57.4987 145.537 58.236 144.604 58.74C143.689 59.244 142.653 59.496 141.496 59.496C140.096 59.496 138.836 59.1693 137.716 58.516C136.596 57.8627 135.709 56.9667 135.056 55.828C134.421 54.6893 134.104 53.4107 134.104 51.992C134.104 50.5547 134.421 49.276 135.056 48.156C135.709 47.036 136.587 46.1493 137.688 45.496C138.789 44.8427 140.049 44.516 141.468 44.516C142.625 44.516 143.652 44.768 144.548 45.272C145.463 45.7573 146.209 46.4667 146.788 47.4L146.368 48.184V44.852H149.364V59.3C149.364 60.6067 149.047 61.7733 148.412 62.8C147.796 63.8453 146.937 64.6667 145.836 65.264C144.735 65.8613 143.465 66.16 142.028 66.16ZM141.86 56.556C142.7 56.556 143.447 56.36 144.1 55.968C144.753 55.5573 145.267 55.016 145.64 54.344C146.032 53.6533 146.228 52.8787 146.228 52.02C146.228 51.1613 146.032 50.3867 145.64 49.696C145.248 49.0053 144.725 48.464 144.072 48.072C143.419 47.6613 142.681 47.456 141.86 47.456C141.001 47.456 140.236 47.6613 139.564 48.072C138.892 48.464 138.36 49.0053 137.968 49.696C137.595 50.368 137.408 51.1427 137.408 52.02C137.408 52.86 137.595 53.6253 137.968 54.316C138.36 55.0067 138.892 55.5573 139.564 55.968C140.236 56.36 141.001 56.556 141.86 56.556ZM153.368 60V44.852H156.532V60H153.368ZM153.368 42.78V39.14H156.532V42.78H153.368ZM167.083 60.168C165.496 60.168 164.264 59.72 163.387 58.824C162.509 57.928 162.071 56.668 162.071 55.044V47.708H159.411V44.852H159.831C160.54 44.852 161.091 44.6467 161.483 44.236C161.875 43.8253 162.071 43.2653 162.071 42.556V41.38H165.235V44.852H168.679V47.708H165.235V54.904C165.235 55.4267 165.319 55.8747 165.487 56.248C165.655 56.6027 165.925 56.8827 166.299 57.088C166.672 57.2747 167.157 57.368 167.755 57.368C167.904 57.368 168.072 57.3587 168.259 57.34C168.445 57.3213 168.623 57.3027 168.791 57.284V60C168.529 60.0373 168.24 60.0747 167.923 60.112C167.605 60.1493 167.325 60.168 167.083 60.168ZM176.578 60.336C175.551 60.336 174.646 60.1587 173.862 59.804C173.096 59.4307 172.499 58.9267 172.07 58.292C171.64 57.6387 171.426 56.8733 171.426 55.996C171.426 55.1747 171.603 54.4373 171.958 53.784C172.331 53.1307 172.9 52.58 173.666 52.132C174.431 51.684 175.392 51.3667 176.55 51.18L181.814 50.312V52.804L177.166 53.616C176.326 53.7653 175.71 54.036 175.318 54.428C174.926 54.8013 174.73 55.2867 174.73 55.884C174.73 56.4627 174.944 56.9387 175.374 57.312C175.822 57.6667 176.391 57.844 177.082 57.844C177.94 57.844 178.687 57.6573 179.322 57.284C179.975 56.9107 180.479 56.416 180.834 55.8C181.188 55.1653 181.366 54.4653 181.366 53.7V49.808C181.366 49.0613 181.086 48.4547 180.526 47.988C179.984 47.5027 179.256 47.26 178.342 47.26C177.502 47.26 176.764 47.484 176.13 47.932C175.514 48.3613 175.056 48.9213 174.758 49.612L172.126 48.296C172.406 47.5493 172.863 46.896 173.498 46.336C174.132 45.7573 174.87 45.3093 175.71 44.992C176.568 44.6747 177.474 44.516 178.426 44.516C179.62 44.516 180.675 44.74 181.59 45.188C182.523 45.636 183.242 46.2613 183.746 47.064C184.268 47.848 184.53 48.7627 184.53 49.808V60H181.506V57.256L182.15 57.34C181.795 57.956 181.338 58.488 180.778 58.936C180.236 59.384 179.611 59.7293 178.902 59.972C178.211 60.2147 177.436 60.336 176.578 60.336ZM188.529 60V38.804H191.693V60H188.529ZM201.195 60V39.14H208.783C210.183 39.14 211.415 39.4013 212.479 39.924C213.562 40.428 214.402 41.1747 214.999 42.164C215.596 43.1347 215.895 44.3013 215.895 45.664C215.895 47.008 215.587 48.1653 214.971 49.136C214.374 50.1067 213.543 50.8533 212.479 51.376C211.415 51.8987 210.183 52.16 208.783 52.16H204.499V60H201.195ZM204.499 49.22H208.867C209.614 49.22 210.267 49.0707 210.827 48.772C211.387 48.4733 211.826 48.0627 212.143 47.54C212.46 46.9987 212.619 46.364 212.619 45.636C212.619 44.908 212.46 44.2827 212.143 43.76C211.826 43.2187 211.387 42.808 210.827 42.528C210.267 42.2293 209.614 42.08 208.867 42.08H204.499V49.22ZM219.289 60V44.852H222.313V47.904L222.033 47.456C222.369 46.4667 222.91 45.7573 223.657 45.328C224.403 44.88 225.299 44.656 226.345 44.656H227.269V47.54H225.953C224.907 47.54 224.058 47.8667 223.405 48.52C222.77 49.1547 222.453 50.0693 222.453 51.264V60H219.289ZM237.041 60.336C235.585 60.336 234.25 59.9907 233.037 59.3C231.842 58.6093 230.89 57.6667 230.181 56.472C229.472 55.2773 229.117 53.924 229.117 52.412C229.117 50.8813 229.472 49.528 230.181 48.352C230.89 47.1573 231.842 46.224 233.037 45.552C234.232 44.8613 235.566 44.516 237.041 44.516C238.534 44.516 239.869 44.8613 241.045 45.552C242.24 46.224 243.182 47.1573 243.873 48.352C244.582 49.528 244.937 50.8813 244.937 52.412C244.937 53.9427 244.582 55.3053 243.873 56.5C243.164 57.6947 242.212 58.6373 241.017 59.328C239.822 60 238.497 60.336 237.041 60.336ZM237.041 57.396C237.937 57.396 238.73 57.1813 239.421 56.752C240.112 56.3227 240.653 55.7347 241.045 54.988C241.456 54.2227 241.661 53.364 241.661 52.412C241.661 51.46 241.456 50.6107 241.045 49.864C240.653 49.1173 240.112 48.5293 239.421 48.1C238.73 47.6707 237.937 47.456 237.041 47.456C236.164 47.456 235.37 47.6707 234.661 48.1C233.97 48.5293 233.42 49.1173 233.009 49.864C232.617 50.6107 232.421 51.46 232.421 52.412C232.421 53.364 232.617 54.2227 233.009 54.988C233.42 55.7347 233.97 56.3227 234.661 56.752C235.37 57.1813 236.164 57.396 237.041 57.396ZM255.326 60.336C253.87 60.336 252.563 59.9907 251.406 59.3C250.267 58.5907 249.362 57.6387 248.69 56.444C248.037 55.2493 247.71 53.9053 247.71 52.412C247.71 50.9187 248.046 49.5747 248.718 48.38C249.39 47.1853 250.295 46.2427 251.434 45.552C252.573 44.8613 253.861 44.516 255.298 44.516C256.511 44.516 257.585 44.7587 258.518 45.244C259.451 45.7293 260.189 46.4013 260.73 47.26L260.254 47.988V38.804H263.39V60H260.394V56.92L260.758 57.508C260.235 58.4227 259.489 59.1227 258.518 59.608C257.547 60.0933 256.483 60.336 255.326 60.336ZM255.634 57.396C256.511 57.396 257.295 57.1813 257.986 56.752C258.695 56.3227 259.246 55.7347 259.638 54.988C260.049 54.2227 260.254 53.364 260.254 52.412C260.254 51.46 260.049 50.6107 259.638 49.864C259.246 49.1173 258.695 48.5293 257.986 48.1C257.295 47.6707 256.511 47.456 255.634 47.456C254.757 47.456 253.963 47.6707 253.254 48.1C252.545 48.5293 251.994 49.1173 251.602 49.864C251.21 50.6107 251.014 51.46 251.014 52.412C251.014 53.364 251.21 54.2227 251.602 54.988C251.994 55.7347 252.535 56.3227 253.226 56.752C253.935 57.1813 254.738 57.396 255.634 57.396ZM272.788 60.336C271.649 60.336 270.651 60.084 269.792 59.58C268.933 59.0573 268.261 58.3387 267.776 57.424C267.309 56.4907 267.076 55.4173 267.076 54.204V44.852H270.24V53.924C270.24 54.6147 270.38 55.2213 270.66 55.744C270.94 56.2667 271.332 56.6773 271.836 56.976C272.34 57.256 272.919 57.396 273.572 57.396C274.244 57.396 274.832 57.2467 275.336 56.948C275.84 56.6493 276.232 56.2293 276.512 55.688C276.811 55.1467 276.96 54.512 276.96 53.784V44.852H280.096V60H277.1V57.032L277.436 57.424C277.081 58.3573 276.493 59.076 275.672 59.58C274.851 60.084 273.889 60.336 272.788 60.336ZM291.286 60.336C289.774 60.336 288.43 59.9907 287.254 59.3C286.097 58.5907 285.173 57.6387 284.482 56.444C283.81 55.2493 283.474 53.896 283.474 52.384C283.474 50.8907 283.81 49.5467 284.482 48.352C285.154 47.1573 286.078 46.224 287.254 45.552C288.43 44.8613 289.774 44.516 291.286 44.516C292.313 44.516 293.274 44.7027 294.17 45.076C295.066 45.4307 295.841 45.9253 296.494 46.56C297.166 47.1947 297.661 47.932 297.978 48.772L295.206 50.06C294.889 49.276 294.376 48.6507 293.666 48.184C292.976 47.6987 292.182 47.456 291.286 47.456C290.428 47.456 289.653 47.6707 288.962 48.1C288.29 48.5107 287.758 49.0987 287.366 49.864C286.974 50.6107 286.778 51.46 286.778 52.412C286.778 53.364 286.974 54.2227 287.366 54.988C287.758 55.7347 288.29 56.3227 288.962 56.752C289.653 57.1813 290.428 57.396 291.286 57.396C292.201 57.396 292.994 57.1627 293.666 56.696C294.357 56.2107 294.87 55.5667 295.206 54.764L297.978 56.08C297.68 56.8827 297.194 57.6107 296.522 58.264C295.869 58.8987 295.094 59.4027 294.198 59.776C293.302 60.1493 292.332 60.336 291.286 60.336ZM307.923 60.168C306.336 60.168 305.104 59.72 304.227 58.824C303.349 57.928 302.911 56.668 302.911 55.044V47.708H300.251V44.852H300.671C301.38 44.852 301.931 44.6467 302.323 44.236C302.715 43.8253 302.911 43.2653 302.911 42.556V41.38H306.075V44.852H309.519V47.708H306.075V54.904C306.075 55.4267 306.159 55.8747 306.327 56.248C306.495 56.6027 306.765 56.8827 307.139 57.088C307.512 57.2747 307.997 57.368 308.595 57.368C308.744 57.368 308.912 57.3587 309.099 57.34C309.285 57.3213 309.463 57.3027 309.631 57.284V60C309.369 60.0373 309.08 60.0747 308.763 60.112C308.445 60.1493 308.165 60.168 307.923 60.168ZM318.521 60V39.14H321.825V57.06H330.841V60H318.521ZM338.143 60.336C337.116 60.336 336.211 60.1587 335.427 59.804C334.661 59.4307 334.064 58.9267 333.635 58.292C333.205 57.6387 332.991 56.8733 332.991 55.996C332.991 55.1747 333.168 54.4373 333.523 53.784C333.896 53.1307 334.465 52.58 335.231 52.132C335.996 51.684 336.957 51.3667 338.115 51.18L343.379 50.312V52.804L338.731 53.616C337.891 53.7653 337.275 54.036 336.883 54.428C336.491 54.8013 336.295 55.2867 336.295 55.884C336.295 56.4627 336.509 56.9387 336.939 57.312C337.387 57.6667 337.956 57.844 338.647 57.844C339.505 57.844 340.252 57.6573 340.887 57.284C341.54 56.9107 342.044 56.416 342.399 55.8C342.753 55.1653 342.931 54.4653 342.931 53.7V49.808C342.931 49.0613 342.651 48.4547 342.091 47.988C341.549 47.5027 340.821 47.26 339.907 47.26C339.067 47.26 338.329 47.484 337.695 47.932C337.079 48.3613 336.621 48.9213 336.323 49.612L333.691 48.296C333.971 47.5493 334.428 46.896 335.063 46.336C335.697 45.7573 336.435 45.3093 337.275 44.992C338.133 44.6747 339.039 44.516 339.991 44.516C341.185 44.516 342.24 44.74 343.155 45.188C344.088 45.636 344.807 46.2613 345.311 47.064C345.833 47.848 346.095 48.7627 346.095 49.808V60H343.071V57.256L343.715 57.34C343.36 57.956 342.903 58.488 342.343 58.936C341.801 59.384 341.176 59.7293 340.467 59.972C339.776 60.2147 339.001 60.336 338.143 60.336ZM355.498 60.336C354.359 60.336 353.361 60.084 352.502 59.58C351.643 59.0573 350.971 58.3387 350.486 57.424C350.019 56.4907 349.786 55.4173 349.786 54.204V44.852H352.95V53.924C352.95 54.6147 353.09 55.2213 353.37 55.744C353.65 56.2667 354.042 56.6773 354.546 56.976C355.05 57.256 355.629 57.396 356.282 57.396C356.954 57.396 357.542 57.2467 358.046 56.948C358.55 56.6493 358.942 56.2293 359.222 55.688C359.521 55.1467 359.67 54.512 359.67 53.784V44.852H362.806V60H359.81V57.032L360.146 57.424C359.791 58.3573 359.203 59.076 358.382 59.58C357.561 60.084 356.599 60.336 355.498 60.336ZM366.8 60V44.852H369.824V47.82L369.46 47.428C369.834 46.476 370.431 45.7573 371.252 45.272C372.074 44.768 373.026 44.516 374.108 44.516C375.228 44.516 376.218 44.7587 377.076 45.244C377.935 45.7293 378.607 46.4013 379.092 47.26C379.578 48.1187 379.82 49.108 379.82 50.228V60H376.684V51.068C376.684 50.3027 376.544 49.6587 376.264 49.136C375.984 48.5947 375.583 48.184 375.06 47.904C374.556 47.6053 373.978 47.456 373.324 47.456C372.671 47.456 372.083 47.6053 371.56 47.904C371.056 48.184 370.664 48.5947 370.384 49.136C370.104 49.6773 369.964 50.3213 369.964 51.068V60H366.8ZM390.703 60.336C389.191 60.336 387.847 59.9907 386.671 59.3C385.513 58.5907 384.589 57.6387 383.899 56.444C383.227 55.2493 382.891 53.896 382.891 52.384C382.891 50.8907 383.227 49.5467 383.899 48.352C384.571 47.1573 385.495 46.224 386.671 45.552C387.847 44.8613 389.191 44.516 390.703 44.516C391.729 44.516 392.691 44.7027 393.587 45.076C394.483 45.4307 395.257 45.9253 395.911 46.56C396.583 47.1947 397.077 47.932 397.395 48.772L394.623 50.06C394.305 49.276 393.792 48.6507 393.083 48.184C392.392 47.6987 391.599 47.456 390.703 47.456C389.844 47.456 389.069 47.6707 388.379 48.1C387.707 48.5107 387.175 49.0987 386.783 49.864C386.391 50.6107 386.195 51.46 386.195 52.412C386.195 53.364 386.391 54.2227 386.783 54.988C387.175 55.7347 387.707 56.3227 388.379 56.752C389.069 57.1813 389.844 57.396 390.703 57.396C391.617 57.396 392.411 57.1627 393.083 56.696C393.773 56.2107 394.287 55.5667 394.623 54.764L397.395 56.08C397.096 56.8827 396.611 57.6107 395.939 58.264C395.285 58.8987 394.511 59.4027 393.615 59.776C392.719 60.1493 391.748 60.336 390.703 60.336ZM400.787 60V38.804H403.951V47.82L403.447 47.428C403.82 46.476 404.418 45.7573 405.239 45.272C406.06 44.768 407.012 44.516 408.095 44.516C409.215 44.516 410.204 44.7587 411.063 45.244C411.922 45.7293 412.594 46.4013 413.079 47.26C413.564 48.1187 413.807 49.0987 413.807 50.2V60H410.671V51.068C410.671 50.3027 410.522 49.6587 410.223 49.136C409.943 48.5947 409.551 48.184 409.047 47.904C408.543 47.6053 407.964 47.456 407.311 47.456C406.676 47.456 406.098 47.6053 405.575 47.904C405.071 48.184 404.67 48.5947 404.371 49.136C404.091 49.6773 403.951 50.3213 403.951 51.068V60H400.787Z" fill="#E8E9E9"/>
<defs>
<filter id="filter0_dd_0_98" x="8" y="24" width="88" height="88" filterUnits="userSpaceOnUse" color-interpolation-filters="sRGB">
<feFlood flood-opacity="0" result="BackgroundImageFix"/>
<feColorMatrix in="SourceAlpha" type="matrix" values="0 0 0 0 0 0 0 0 0 0 0 0 0 0 0 0 0 0 127 0" result="hardAlpha"/>
<feMorphology radius="4" operator="erode" in="SourceAlpha" result="effect1_dropShadow_0_98"/>
<feOffset dy="4"/>
<feGaussianBlur stdDeviation="3"/>
<feColorMatrix type="matrix" values="0 0 0 0 0.741176 0 0 0 0 0.231373 0 0 0 0 0.227451 0 0 0 0.16 0"/>
<feBlend mode="normal" in2="BackgroundImageFix" result="effect1_dropShadow_0_98"/>
<feColorMatrix in="SourceAlpha" type="matrix" values="0 0 0 0 0 0 0 0 0 0 0 0 0 0 0 0 0 0 127 0" result="hardAlpha"/>
<feMorphology radius="3" operator="erode" in="SourceAlpha" result="effect2_dropShadow_0_98"/>
<feOffset dy="10"/>
<feGaussianBlur stdDeviation="7.5"/>
<feColorMatrix type="matrix" values="0 0 0 0 0.741176 0 0 0 0 0.231373 0 0 0 0 0.227451 0 0 0 0.16 0"/>
<feBlend mode="normal" in2="effect1_dropShadow_0_98" result="effect2_dropShadow_0_98"/>
<feBlend mode="normal" in="SourceGraphic" in2="effect2_dropShadow_0_98" result="shape"/>
</filter>
</defs>
</svg>
