<svg width="592" height="109" viewBox="0 0 592 109" fill="none" xmlns="http://www.w3.org/2000/svg">
<g filter="url(#filter0_dd_0_105)">
<rect x="37" y="33" width="30" height="30" rx="3" stroke="#E26F20" stroke-width="1.5" stroke-linecap="round"/>
</g>
<path d="M106.555 60V39.14H115.347C116.654 39.14 117.783 39.3733 118.735 39.84C119.687 40.288 120.415 40.9413 120.919 41.8C121.423 42.64 121.675 43.6387 121.675 44.796C121.675 45.804 121.414 46.728 120.891 47.568C120.387 48.3893 119.594 49.0427 118.511 49.528V48.128C119.463 48.5013 120.238 48.9773 120.835 49.556C121.433 50.116 121.862 50.7507 122.123 51.46C122.403 52.1693 122.543 52.916 122.543 53.7C122.543 55.66 121.899 57.2 120.611 58.32C119.342 59.44 117.597 60 115.375 60H106.555ZM109.859 57.06H115.627C116.729 57.06 117.606 56.7613 118.259 56.164C118.913 55.548 119.239 54.736 119.239 53.728C119.239 52.7013 118.913 51.8893 118.259 51.292C117.606 50.676 116.729 50.368 115.627 50.368H109.859V57.06ZM109.859 47.456H115.431C116.327 47.456 117.046 47.204 117.587 46.7C118.129 46.1773 118.399 45.496 118.399 44.656C118.399 43.816 118.129 43.1627 117.587 42.696C117.046 42.2293 116.327 41.996 115.431 41.996H109.859V47.456ZM125.934 60V44.852H128.958V47.904L128.678 47.456C129.014 46.4667 129.555 45.7573 130.302 45.328C131.049 44.88 131.945 44.656 132.99 44.656H133.914V47.54H132.598C131.553 47.54 130.703 47.8667 130.05 48.52C129.415 49.1547 129.098 50.0693 129.098 51.264V60H125.934ZM140.914 60.336C139.888 60.336 138.982 60.1587 138.198 59.804C137.433 59.4307 136.836 58.9267 136.406 58.292C135.977 57.6387 135.762 56.8733 135.762 55.996C135.762 55.1747 135.94 54.4373 136.294 53.784C136.668 53.1307 137.237 52.58 138.002 52.132C138.768 51.684 139.729 51.3667 140.886 51.18L146.15 50.312V52.804L141.502 53.616C140.662 53.7653 140.046 54.036 139.654 54.428C139.262 54.8013 139.066 55.2867 139.066 55.884C139.066 56.4627 139.281 56.9387 139.71 57.312C140.158 57.6667 140.728 57.844 141.418 57.844C142.277 57.844 143.024 57.6573 143.658 57.284C144.312 56.9107 144.816 56.416 145.17 55.8C145.525 55.1653 145.702 54.4653 145.702 53.7V49.808C145.702 49.0613 145.422 48.4547 144.862 47.988C144.321 47.5027 143.593 47.26 142.678 47.26C141.838 47.26 141.101 47.484 140.466 47.932C139.85 48.3613 139.393 48.9213 139.094 49.612L136.462 48.296C136.742 47.5493 137.2 46.896 137.834 46.336C138.469 45.7573 139.206 45.3093 140.046 44.992C140.905 44.6747 141.81 44.516 142.762 44.516C143.957 44.516 145.012 44.74 145.926 45.188C146.86 45.636 147.578 46.2613 148.082 47.064C148.605 47.848 148.866 48.7627 148.866 49.808V60H145.842V57.256L146.486 57.34C146.132 57.956 145.674 58.488 145.114 58.936C144.573 59.384 143.948 59.7293 143.238 59.972C142.548 60.2147 141.773 60.336 140.914 60.336ZM152.866 60V44.852H155.89V47.82L155.526 47.428C155.899 46.476 156.497 45.7573 157.318 45.272C158.139 44.768 159.091 44.516 160.174 44.516C161.294 44.516 162.283 44.7587 163.142 45.244C164.001 45.7293 164.673 46.4013 165.158 47.26C165.643 48.1187 165.886 49.108 165.886 50.228V60H162.75V51.068C162.75 50.3027 162.61 49.6587 162.33 49.136C162.05 48.5947 161.649 48.184 161.126 47.904C160.622 47.6053 160.043 47.456 159.39 47.456C158.737 47.456 158.149 47.6053 157.626 47.904C157.122 48.184 156.73 48.5947 156.45 49.136C156.17 49.6773 156.03 50.3213 156.03 51.068V60H152.866ZM176.572 60.336C175.116 60.336 173.81 59.9907 172.652 59.3C171.514 58.5907 170.608 57.6387 169.936 56.444C169.283 55.2493 168.956 53.9053 168.956 52.412C168.956 50.9187 169.292 49.5747 169.964 48.38C170.636 47.1853 171.542 46.2427 172.68 45.552C173.819 44.8613 175.107 44.516 176.544 44.516C177.758 44.516 178.831 44.7587 179.764 45.244C180.698 45.7293 181.435 46.4013 181.976 47.26L181.5 47.988V38.804H184.636V60H181.64V56.92L182.004 57.508C181.482 58.4227 180.735 59.1227 179.764 59.608C178.794 60.0933 177.73 60.336 176.572 60.336ZM176.88 57.396C177.758 57.396 178.542 57.1813 179.232 56.752C179.942 56.3227 180.492 55.7347 180.884 54.988C181.295 54.2227 181.5 53.364 181.5 52.412C181.5 51.46 181.295 50.6107 180.884 49.864C180.492 49.1173 179.942 48.5293 179.232 48.1C178.542 47.6707 177.758 47.456 176.88 47.456C176.003 47.456 175.21 47.6707 174.5 48.1C173.791 48.5293 173.24 49.1173 172.848 49.864C172.456 50.6107 172.26 51.46 172.26 52.412C172.26 53.364 172.456 54.2227 172.848 54.988C173.24 55.7347 173.782 56.3227 174.472 56.752C175.182 57.1813 175.984 57.396 176.88 57.396ZM194.133 60V39.14H201.721C203.121 39.14 204.353 39.4013 205.417 39.924C206.481 40.428 207.311 41.1747 207.909 42.164C208.525 43.1347 208.833 44.3013 208.833 45.664C208.833 47.1013 208.469 48.3333 207.741 49.36C207.031 50.3867 206.07 51.1333 204.857 51.6L209.673 60H205.921L200.797 50.9L202.953 52.16H197.437V60H194.133ZM197.437 49.22H201.777C202.542 49.22 203.205 49.0707 203.765 48.772C204.325 48.4733 204.754 48.0627 205.053 47.54C205.37 46.9987 205.529 46.364 205.529 45.636C205.529 44.908 205.37 44.2827 205.053 43.76C204.754 43.2187 204.325 42.808 203.765 42.528C203.205 42.2293 202.542 42.08 201.777 42.08H197.437V49.22ZM218.709 60.336C217.197 60.336 215.853 59.9907 214.677 59.3C213.52 58.5907 212.615 57.6387 211.961 56.444C211.308 55.2307 210.981 53.8773 210.981 52.384C210.981 50.8533 211.308 49.5 211.961 48.324C212.633 47.148 213.529 46.224 214.649 45.552C215.769 44.8613 217.039 44.516 218.457 44.516C219.596 44.516 220.613 44.712 221.509 45.104C222.405 45.496 223.161 46.0373 223.777 46.728C224.393 47.4 224.86 48.1747 225.177 49.052C225.513 49.9293 225.681 50.8627 225.681 51.852C225.681 52.0947 225.672 52.3467 225.653 52.608C225.635 52.8693 225.597 53.112 225.541 53.336H213.473V50.816H223.749L222.237 51.964C222.424 51.0493 222.359 50.2373 222.041 49.528C221.743 48.8 221.276 48.2307 220.641 47.82C220.025 47.3907 219.297 47.176 218.457 47.176C217.617 47.176 216.871 47.3907 216.217 47.82C215.564 48.2307 215.06 48.828 214.705 49.612C214.351 50.3773 214.211 51.3107 214.285 52.412C214.192 53.4387 214.332 54.3347 214.705 55.1C215.097 55.8653 215.639 56.4627 216.329 56.892C217.039 57.3213 217.841 57.536 218.737 57.536C219.652 57.536 220.427 57.3307 221.061 56.92C221.715 56.5093 222.228 55.9773 222.601 55.324L225.177 56.584C224.879 57.2933 224.412 57.9373 223.777 58.516C223.161 59.076 222.415 59.524 221.537 59.86C220.679 60.1773 219.736 60.336 218.709 60.336ZM230.777 60V47.708H227.977V44.852H230.777V44.068C230.777 42.9293 231.01 41.9773 231.477 41.212C231.944 40.428 232.588 39.8307 233.409 39.42C234.249 39.0093 235.21 38.804 236.293 38.804C236.498 38.804 236.732 38.8227 236.993 38.86C237.254 38.8787 237.469 38.9067 237.637 38.944V41.688C237.488 41.6507 237.32 41.632 237.133 41.632C236.946 41.6133 236.797 41.604 236.685 41.604C235.845 41.604 235.173 41.8 234.669 42.192C234.165 42.5653 233.913 43.1907 233.913 44.068V44.852H237.385V47.708H233.913V60H230.777ZM240.498 60V44.852H243.522V47.904L243.242 47.456C243.578 46.4667 244.119 45.7573 244.866 45.328C245.613 44.88 246.509 44.656 247.554 44.656H248.478V47.54H247.162C246.117 47.54 245.267 47.8667 244.614 48.52C243.979 49.1547 243.662 50.0693 243.662 51.264V60H240.498ZM258.055 60.336C256.543 60.336 255.199 59.9907 254.023 59.3C252.865 58.5907 251.96 57.6387 251.307 56.444C250.653 55.2307 250.327 53.8773 250.327 52.384C250.327 50.8533 250.653 49.5 251.307 48.324C251.979 47.148 252.875 46.224 253.995 45.552C255.115 44.8613 256.384 44.516 257.803 44.516C258.941 44.516 259.959 44.712 260.855 45.104C261.751 45.496 262.507 46.0373 263.123 46.728C263.739 47.4 264.205 48.1747 264.523 49.052C264.859 49.9293 265.027 50.8627 265.027 51.852C265.027 52.0947 265.017 52.3467 264.999 52.608C264.98 52.8693 264.943 53.112 264.887 53.336H252.819V50.816H263.095L261.583 51.964C261.769 51.0493 261.704 50.2373 261.387 49.528C261.088 48.8 260.621 48.2307 259.987 47.82C259.371 47.3907 258.643 47.176 257.803 47.176C256.963 47.176 256.216 47.3907 255.563 47.82C254.909 48.2307 254.405 48.828 254.051 49.612C253.696 50.3773 253.556 51.3107 253.631 52.412C253.537 53.4387 253.677 54.3347 254.051 55.1C254.443 55.8653 254.984 56.4627 255.675 56.892C256.384 57.3213 257.187 57.536 258.083 57.536C258.997 57.536 259.772 57.3307 260.407 56.92C261.06 56.5093 261.573 55.9773 261.947 55.324L264.523 56.584C264.224 57.2933 263.757 57.9373 263.123 58.516C262.507 59.076 261.76 59.524 260.883 59.86C260.024 60.1773 259.081 60.336 258.055 60.336ZM274.014 60.336C272.465 60.336 271.102 59.9533 269.926 59.188C268.769 58.4227 267.957 57.396 267.49 56.108L269.926 54.96C270.337 55.8187 270.897 56.5 271.606 57.004C272.334 57.508 273.137 57.76 274.014 57.76C274.761 57.76 275.368 57.592 275.834 57.256C276.301 56.92 276.534 56.4627 276.534 55.884C276.534 55.5107 276.432 55.212 276.226 54.988C276.021 54.7453 275.76 54.5493 275.442 54.4C275.144 54.2507 274.836 54.1387 274.518 54.064L272.138 53.392C270.832 53.0187 269.852 52.4587 269.198 51.712C268.564 50.9467 268.246 50.06 268.246 49.052C268.246 48.1373 268.48 47.344 268.946 46.672C269.413 45.9813 270.057 45.4493 270.878 45.076C271.7 44.7027 272.624 44.516 273.65 44.516C275.032 44.516 276.264 44.8613 277.346 45.552C278.429 46.224 279.194 47.1667 279.642 48.38L277.206 49.528C276.908 48.8 276.432 48.2213 275.778 47.792C275.144 47.3627 274.425 47.148 273.622 47.148C272.932 47.148 272.381 47.316 271.97 47.652C271.56 47.9693 271.354 48.3893 271.354 48.912C271.354 49.2667 271.448 49.5653 271.634 49.808C271.821 50.032 272.064 50.2187 272.362 50.368C272.661 50.4987 272.969 50.6107 273.286 50.704L275.75 51.432C277.001 51.7867 277.962 52.3467 278.634 53.112C279.306 53.8587 279.642 54.7547 279.642 55.8C279.642 56.696 279.4 57.4893 278.914 58.18C278.448 58.852 277.794 59.384 276.954 59.776C276.114 60.1493 275.134 60.336 274.014 60.336ZM283.043 60V38.804H286.207V47.82L285.703 47.428C286.076 46.476 286.673 45.7573 287.495 45.272C288.316 44.768 289.268 44.516 290.351 44.516C291.471 44.516 292.46 44.7587 293.319 45.244C294.177 45.7293 294.849 46.4013 295.335 47.26C295.82 48.1187 296.063 49.0987 296.063 50.2V60H292.927V51.068C292.927 50.3027 292.777 49.6587 292.479 49.136C292.199 48.5947 291.807 48.184 291.303 47.904C290.799 47.6053 290.22 47.456 289.567 47.456C288.932 47.456 288.353 47.6053 287.831 47.904C287.327 48.184 286.925 48.5947 286.627 49.136C286.347 49.6773 286.207 50.3213 286.207 51.068V60H283.043Z" fill="#E8E9E9"/>
<defs>
<filter id="filter0_dd_0_105" x="8" y="24" width="88" height="88" filterUnits="userSpaceOnUse" color-interpolation-filters="sRGB">
<feFlood flood-opacity="0" result="BackgroundImageFix"/>
<feColorMatrix in="SourceAlpha" type="matrix" values="0 0 0 0 0 0 0 0 0 0 0 0 0 0 0 0 0 0 127 0" result="hardAlpha"/>
<feMorphology radius="4" operator="erode" in="SourceAlpha" result="effect1_dropShadow_0_105"/>
<feOffset dy="4"/>
<feGaussianBlur stdDeviation="3"/>
<feColorMatrix type="matrix" values="0 0 0 0 0.886275 0 0 0 0 0.435294 0 0 0 0 0.12549 0 0 0 0.16 0"/>
<feBlend mode="normal" in2="BackgroundImageFix" result="effect1_dropShadow_0_105"/>
<feColorMatrix in="SourceAlpha" type="matrix" values="0 0 0 0 0 0 0 0 0 0 0 0 0 0 0 0 0 0 127 0" result="hardAlpha"/>
<feMorphology radius="3" operator="erode" in="SourceAlpha" result="effect2_dropShadow_0_105"/>
<feOffset dy="10"/>
<feGaussianBlur stdDeviation="7.5"/>
<feColorMatrix type="matrix" values="0 0 0 0 0.886275 0 0 0 0 0.435294 0 0 0 0 0.12549 0 0 0 0.16 0"/>
<feBlend mode="normal" in2="effect1_dropShadow_0_105" result="effect2_dropShadow_0_105"/>
<feBlend mode="normal" in="SourceGraphic" in2="effect2_dropShadow_0_105" result="shape"/>
</filter>
</defs>
</svg>
