<svg width="592" height="109" viewBox="0 0 592 109" fill="none" xmlns="http://www.w3.org/2000/svg">
<g filter="url(#filter0_dd_0_112)">
<path d="M52 63H57.8431C58.904 63 59.9214 62.5786 60.6716 61.8284L65.8284 56.6716C66.5786 55.9214 67 54.904 67 53.8431V48V42.1569C67 41.096 66.5786 40.0786 65.8284 39.3284L60.6716 34.1716C59.9214 33.4214 58.904 33 57.8431 33H52H46.1569C45.096 33 44.0786 33.4214 43.3284 34.1716L38.1716 39.3284C37.4214 40.0786 37 41.096 37 42.1569V48V53.8431C37 54.904 37.4214 55.9214 38.1716 56.6716L43.3284 61.8284C44.0786 62.5786 45.096 63 46.1569 63H52Z" stroke="#82DBF7" stroke-width="1.5" stroke-linecap="round"/>
</g>
<path d="M114.15 60.336C112.843 60.336 111.63 60.0933 110.51 59.608C109.39 59.104 108.438 58.4227 107.654 57.564C106.87 56.7053 106.291 55.716 105.918 54.596L108.718 53.42C109.222 54.708 109.959 55.6973 110.93 56.388C111.9 57.0787 113.02 57.424 114.29 57.424C115.036 57.424 115.69 57.312 116.25 57.088C116.81 56.8453 117.239 56.5093 117.538 56.08C117.855 55.6507 118.014 55.156 118.014 54.596C118.014 53.8307 117.799 53.224 117.37 52.776C116.94 52.328 116.306 51.9733 115.466 51.712L111.546 50.48C109.978 49.9947 108.783 49.2573 107.962 48.268C107.14 47.26 106.73 46.084 106.73 44.74C106.73 43.564 107.019 42.5373 107.598 41.66C108.176 40.764 108.97 40.064 109.978 39.56C111.004 39.056 112.171 38.804 113.478 38.804C114.728 38.804 115.867 39.028 116.894 39.476C117.92 39.9053 118.798 40.5027 119.526 41.268C120.272 42.0333 120.814 42.92 121.15 43.928L118.406 45.132C117.995 44.0307 117.351 43.1813 116.474 42.584C115.615 41.9867 114.616 41.688 113.478 41.688C112.787 41.688 112.18 41.8093 111.658 42.052C111.135 42.276 110.724 42.612 110.426 43.06C110.146 43.4893 110.006 43.9933 110.006 44.572C110.006 45.244 110.22 45.8413 110.65 46.364C111.079 46.8867 111.732 47.2787 112.61 47.54L116.25 48.688C117.911 49.192 119.162 49.92 120.002 50.872C120.842 51.8053 121.262 52.972 121.262 54.372C121.262 55.5293 120.954 56.556 120.338 57.452C119.74 58.348 118.91 59.0573 117.846 59.58C116.782 60.084 115.55 60.336 114.15 60.336ZM132.27 60.336C130.814 60.336 129.48 59.9907 128.266 59.3C127.072 58.6093 126.12 57.6667 125.41 56.472C124.701 55.2773 124.346 53.924 124.346 52.412C124.346 50.8813 124.701 49.528 125.41 48.352C126.12 47.1573 127.072 46.224 128.266 45.552C129.461 44.8613 130.796 44.516 132.27 44.516C133.764 44.516 135.098 44.8613 136.274 45.552C137.469 46.224 138.412 47.1573 139.102 48.352C139.812 49.528 140.166 50.8813 140.166 52.412C140.166 53.9427 139.812 55.3053 139.102 56.5C138.393 57.6947 137.441 58.6373 136.246 59.328C135.052 60 133.726 60.336 132.27 60.336ZM132.27 57.396C133.166 57.396 133.96 57.1813 134.65 56.752C135.341 56.3227 135.882 55.7347 136.274 54.988C136.685 54.2227 136.89 53.364 136.89 52.412C136.89 51.46 136.685 50.6107 136.274 49.864C135.882 49.1173 135.341 48.5293 134.65 48.1C133.96 47.6707 133.166 47.456 132.27 47.456C131.393 47.456 130.6 47.6707 129.89 48.1C129.2 48.5293 128.649 49.1173 128.238 49.864C127.846 50.6107 127.65 51.46 127.65 52.412C127.65 53.364 127.846 54.2227 128.238 54.988C128.649 55.7347 129.2 56.3227 129.89 56.752C130.6 57.1813 131.393 57.396 132.27 57.396ZM150.751 60.336C149.239 60.336 147.895 59.9907 146.719 59.3C145.562 58.5907 144.638 57.6387 143.947 56.444C143.275 55.2493 142.939 53.896 142.939 52.384C142.939 50.8907 143.275 49.5467 143.947 48.352C144.619 47.1573 145.543 46.224 146.719 45.552C147.895 44.8613 149.239 44.516 150.751 44.516C151.778 44.516 152.739 44.7027 153.635 45.076C154.531 45.4307 155.306 45.9253 155.959 46.56C156.631 47.1947 157.126 47.932 157.443 48.772L154.671 50.06C154.354 49.276 153.841 48.6507 153.131 48.184C152.441 47.6987 151.647 47.456 150.751 47.456C149.893 47.456 149.118 47.6707 148.427 48.1C147.755 48.5107 147.223 49.0987 146.831 49.864C146.439 50.6107 146.243 51.46 146.243 52.412C146.243 53.364 146.439 54.2227 146.831 54.988C147.223 55.7347 147.755 56.3227 148.427 56.752C149.118 57.1813 149.893 57.396 150.751 57.396C151.666 57.396 152.459 57.1627 153.131 56.696C153.822 56.2107 154.335 55.5667 154.671 54.764L157.443 56.08C157.145 56.8827 156.659 57.6107 155.987 58.264C155.334 58.8987 154.559 59.4027 153.663 59.776C152.767 60.1493 151.797 60.336 150.751 60.336ZM160.836 60V44.852H164V60H160.836ZM160.836 42.78V39.14H164V42.78H160.836ZM172.535 60.336C171.509 60.336 170.603 60.1587 169.819 59.804C169.054 59.4307 168.457 58.9267 168.027 58.292C167.598 57.6387 167.383 56.8733 167.383 55.996C167.383 55.1747 167.561 54.4373 167.915 53.784C168.289 53.1307 168.858 52.58 169.623 52.132C170.389 51.684 171.35 51.3667 172.507 51.18L177.771 50.312V52.804L173.123 53.616C172.283 53.7653 171.667 54.036 171.275 54.428C170.883 54.8013 170.687 55.2867 170.687 55.884C170.687 56.4627 170.902 56.9387 171.331 57.312C171.779 57.6667 172.349 57.844 173.039 57.844C173.898 57.844 174.645 57.6573 175.279 57.284C175.933 56.9107 176.437 56.416 176.791 55.8C177.146 55.1653 177.323 54.4653 177.323 53.7V49.808C177.323 49.0613 177.043 48.4547 176.483 47.988C175.942 47.5027 175.214 47.26 174.299 47.26C173.459 47.26 172.722 47.484 172.087 47.932C171.471 48.3613 171.014 48.9213 170.715 49.612L168.083 48.296C168.363 47.5493 168.821 46.896 169.455 46.336C170.09 45.7573 170.827 45.3093 171.667 44.992C172.526 44.6747 173.431 44.516 174.383 44.516C175.578 44.516 176.633 44.74 177.547 45.188C178.481 45.636 179.199 46.2613 179.703 47.064C180.226 47.848 180.487 48.7627 180.487 49.808V60H177.463V57.256L178.107 57.34C177.753 57.956 177.295 58.488 176.735 58.936C176.194 59.384 175.569 59.7293 174.859 59.972C174.169 60.2147 173.394 60.336 172.535 60.336ZM184.487 60V38.804H187.651V60H184.487ZM197.152 60V39.14H200.232L208.072 50.004H206.532L214.232 39.14H217.312V60H214.036V43.032L215.268 43.368L207.4 54.12H207.064L199.364 43.368L200.456 43.032V60H197.152ZM228.729 60.336C227.217 60.336 225.873 59.9907 224.697 59.3C223.54 58.5907 222.634 57.6387 221.981 56.444C221.328 55.2307 221.001 53.8773 221.001 52.384C221.001 50.8533 221.328 49.5 221.981 48.324C222.653 47.148 223.549 46.224 224.669 45.552C225.789 44.8613 227.058 44.516 228.477 44.516C229.616 44.516 230.633 44.712 231.529 45.104C232.425 45.496 233.181 46.0373 233.797 46.728C234.413 47.4 234.88 48.1747 235.197 49.052C235.533 49.9293 235.701 50.8627 235.701 51.852C235.701 52.0947 235.692 52.3467 235.673 52.608C235.654 52.8693 235.617 53.112 235.561 53.336H223.493V50.816H233.769L232.257 51.964C232.444 51.0493 232.378 50.2373 232.061 49.528C231.762 48.8 231.296 48.2307 230.661 47.82C230.045 47.3907 229.317 47.176 228.477 47.176C227.637 47.176 226.89 47.3907 226.237 47.82C225.584 48.2307 225.08 48.828 224.725 49.612C224.37 50.3773 224.23 51.3107 224.305 52.412C224.212 53.4387 224.352 54.3347 224.725 55.1C225.117 55.8653 225.658 56.4627 226.349 56.892C227.058 57.3213 227.861 57.536 228.757 57.536C229.672 57.536 230.446 57.3307 231.081 56.92C231.734 56.5093 232.248 55.9773 232.621 55.324L235.197 56.584C234.898 57.2933 234.432 57.9373 233.797 58.516C233.181 59.076 232.434 59.524 231.557 59.86C230.698 60.1773 229.756 60.336 228.729 60.336ZM246.089 60.336C244.633 60.336 243.326 59.9907 242.169 59.3C241.03 58.5907 240.125 57.6387 239.453 56.444C238.8 55.2493 238.473 53.9053 238.473 52.412C238.473 50.9187 238.809 49.5747 239.481 48.38C240.153 47.1853 241.058 46.2427 242.197 45.552C243.336 44.8613 244.624 44.516 246.061 44.516C247.274 44.516 248.348 44.7587 249.281 45.244C250.214 45.7293 250.952 46.4013 251.493 47.26L251.017 47.988V38.804H254.153V60H251.157V56.92L251.521 57.508C250.998 58.4227 250.252 59.1227 249.281 59.608C248.31 60.0933 247.246 60.336 246.089 60.336ZM246.397 57.396C247.274 57.396 248.058 57.1813 248.749 56.752C249.458 56.3227 250.009 55.7347 250.401 54.988C250.812 54.2227 251.017 53.364 251.017 52.412C251.017 51.46 250.812 50.6107 250.401 49.864C250.009 49.1173 249.458 48.5293 248.749 48.1C248.058 47.6707 247.274 47.456 246.397 47.456C245.52 47.456 244.726 47.6707 244.017 48.1C243.308 48.5293 242.757 49.1173 242.365 49.864C241.973 50.6107 241.777 51.46 241.777 52.412C241.777 53.364 241.973 54.2227 242.365 54.988C242.757 55.7347 243.298 56.3227 243.989 56.752C244.698 57.1813 245.501 57.396 246.397 57.396ZM258.147 60V44.852H261.311V60H258.147ZM258.147 42.78V39.14H261.311V42.78H258.147ZM269.846 60.336C268.819 60.336 267.914 60.1587 267.13 59.804C266.365 59.4307 265.767 58.9267 265.338 58.292C264.909 57.6387 264.694 56.8733 264.694 55.996C264.694 55.1747 264.871 54.4373 265.226 53.784C265.599 53.1307 266.169 52.58 266.934 52.132C267.699 51.684 268.661 51.3667 269.818 51.18L275.082 50.312V52.804L270.434 53.616C269.594 53.7653 268.978 54.036 268.586 54.428C268.194 54.8013 267.998 55.2867 267.998 55.884C267.998 56.4627 268.213 56.9387 268.642 57.312C269.09 57.6667 269.659 57.844 270.35 57.844C271.209 57.844 271.955 57.6573 272.59 57.284C273.243 56.9107 273.747 56.416 274.102 55.8C274.457 55.1653 274.634 54.4653 274.634 53.7V49.808C274.634 49.0613 274.354 48.4547 273.794 47.988C273.253 47.5027 272.525 47.26 271.61 47.26C270.77 47.26 270.033 47.484 269.398 47.932C268.782 48.3613 268.325 48.9213 268.026 49.612L265.394 48.296C265.674 47.5493 266.131 46.896 266.766 46.336C267.401 45.7573 268.138 45.3093 268.978 44.992C269.837 44.6747 270.742 44.516 271.694 44.516C272.889 44.516 273.943 44.74 274.858 45.188C275.791 45.636 276.51 46.2613 277.014 47.064C277.537 47.848 277.798 48.7627 277.798 49.808V60H274.774V57.256L275.418 57.34C275.063 57.956 274.606 58.488 274.046 58.936C273.505 59.384 272.879 59.7293 272.17 59.972C271.479 60.2147 270.705 60.336 269.846 60.336ZM294.608 60.336C293.301 60.336 292.088 60.0933 290.968 59.608C289.848 59.104 288.896 58.4227 288.112 57.564C287.328 56.7053 286.749 55.716 286.376 54.596L289.176 53.42C289.68 54.708 290.417 55.6973 291.388 56.388C292.359 57.0787 293.479 57.424 294.748 57.424C295.495 57.424 296.148 57.312 296.708 57.088C297.268 56.8453 297.697 56.5093 297.996 56.08C298.313 55.6507 298.472 55.156 298.472 54.596C298.472 53.8307 298.257 53.224 297.828 52.776C297.399 52.328 296.764 51.9733 295.924 51.712L292.004 50.48C290.436 49.9947 289.241 49.2573 288.42 48.268C287.599 47.26 287.188 46.084 287.188 44.74C287.188 43.564 287.477 42.5373 288.056 41.66C288.635 40.764 289.428 40.064 290.436 39.56C291.463 39.056 292.629 38.804 293.936 38.804C295.187 38.804 296.325 39.028 297.352 39.476C298.379 39.9053 299.256 40.5027 299.984 41.268C300.731 42.0333 301.272 42.92 301.608 43.928L298.864 45.132C298.453 44.0307 297.809 43.1813 296.932 42.584C296.073 41.9867 295.075 41.688 293.936 41.688C293.245 41.688 292.639 41.8093 292.116 42.052C291.593 42.276 291.183 42.612 290.884 43.06C290.604 43.4893 290.464 43.9933 290.464 44.572C290.464 45.244 290.679 45.8413 291.108 46.364C291.537 46.8867 292.191 47.2787 293.068 47.54L296.708 48.688C298.369 49.192 299.62 49.92 300.46 50.872C301.3 51.8053 301.72 52.972 301.72 54.372C301.72 55.5293 301.412 56.556 300.796 57.452C300.199 58.348 299.368 59.0573 298.304 59.58C297.24 60.084 296.008 60.336 294.608 60.336ZM311.973 60.168C310.386 60.168 309.154 59.72 308.277 58.824C307.4 57.928 306.961 56.668 306.961 55.044V47.708H304.301V44.852H304.721C305.43 44.852 305.981 44.6467 306.373 44.236C306.765 43.8253 306.961 43.2653 306.961 42.556V41.38H310.125V44.852H313.569V47.708H310.125V54.904C310.125 55.4267 310.209 55.8747 310.377 56.248C310.545 56.6027 310.816 56.8827 311.189 57.088C311.562 57.2747 312.048 57.368 312.645 57.368C312.794 57.368 312.962 57.3587 313.149 57.34C313.336 57.3213 313.513 57.3027 313.681 57.284V60C313.42 60.0373 313.13 60.0747 312.813 60.112C312.496 60.1493 312.216 60.168 311.973 60.168ZM317.069 60V44.852H320.093V47.904L319.813 47.456C320.149 46.4667 320.69 45.7573 321.437 45.328C322.183 44.88 323.079 44.656 324.125 44.656H325.049V47.54H323.733C322.687 47.54 321.838 47.8667 321.185 48.52C320.55 49.1547 320.233 50.0693 320.233 51.264V60H317.069ZM332.049 60.336C331.023 60.336 330.117 60.1587 329.333 59.804C328.568 59.4307 327.971 58.9267 327.541 58.292C327.112 57.6387 326.897 56.8733 326.897 55.996C326.897 55.1747 327.075 54.4373 327.429 53.784C327.803 53.1307 328.372 52.58 329.137 52.132C329.903 51.684 330.864 51.3667 332.021 51.18L337.285 50.312V52.804L332.637 53.616C331.797 53.7653 331.181 54.036 330.789 54.428C330.397 54.8013 330.201 55.2867 330.201 55.884C330.201 56.4627 330.416 56.9387 330.845 57.312C331.293 57.6667 331.863 57.844 332.553 57.844C333.412 57.844 334.159 57.6573 334.793 57.284C335.447 56.9107 335.951 56.416 336.305 55.8C336.66 55.1653 336.837 54.4653 336.837 53.7V49.808C336.837 49.0613 336.557 48.4547 335.997 47.988C335.456 47.5027 334.728 47.26 333.813 47.26C332.973 47.26 332.236 47.484 331.601 47.932C330.985 48.3613 330.528 48.9213 330.229 49.612L327.597 48.296C327.877 47.5493 328.335 46.896 328.969 46.336C329.604 45.7573 330.341 45.3093 331.181 44.992C332.04 44.6747 332.945 44.516 333.897 44.516C335.092 44.516 336.147 44.74 337.061 45.188C337.995 45.636 338.713 46.2613 339.217 47.064C339.74 47.848 340.001 48.7627 340.001 49.808V60H336.977V57.256L337.621 57.34C337.267 57.956 336.809 58.488 336.249 58.936C335.708 59.384 335.083 59.7293 334.373 59.972C333.683 60.2147 332.908 60.336 332.049 60.336ZM350.279 60.168C348.693 60.168 347.461 59.72 346.583 58.824C345.706 57.928 345.267 56.668 345.267 55.044V47.708H342.607V44.852H343.027C343.737 44.852 344.287 44.6467 344.679 44.236C345.071 43.8253 345.267 43.2653 345.267 42.556V41.38H348.431V44.852H351.875V47.708H348.431V54.904C348.431 55.4267 348.515 55.8747 348.683 56.248C348.851 56.6027 349.122 56.8827 349.495 57.088C349.869 57.2747 350.354 57.368 350.951 57.368C351.101 57.368 351.269 57.3587 351.455 57.34C351.642 57.3213 351.819 57.3027 351.987 57.284V60C351.726 60.0373 351.437 60.0747 351.119 60.112C350.802 60.1493 350.522 60.168 350.279 60.168ZM362.214 60.336C360.702 60.336 359.358 59.9907 358.182 59.3C357.024 58.5907 356.119 57.6387 355.466 56.444C354.812 55.2307 354.486 53.8773 354.486 52.384C354.486 50.8533 354.812 49.5 355.466 48.324C356.138 47.148 357.034 46.224 358.154 45.552C359.274 44.8613 360.543 44.516 361.962 44.516C363.1 44.516 364.118 44.712 365.014 45.104C365.91 45.496 366.666 46.0373 367.282 46.728C367.898 47.4 368.364 48.1747 368.682 49.052C369.018 49.9293 369.186 50.8627 369.186 51.852C369.186 52.0947 369.176 52.3467 369.158 52.608C369.139 52.8693 369.102 53.112 369.046 53.336H356.978V50.816H367.254L365.742 51.964C365.928 51.0493 365.863 50.2373 365.546 49.528C365.247 48.8 364.78 48.2307 364.146 47.82C363.53 47.3907 362.802 47.176 361.962 47.176C361.122 47.176 360.375 47.3907 359.722 47.82C359.068 48.2307 358.564 48.828 358.21 49.612C357.855 50.3773 357.715 51.3107 357.79 52.412C357.696 53.4387 357.836 54.3347 358.21 55.1C358.602 55.8653 359.143 56.4627 359.834 56.892C360.543 57.3213 361.346 57.536 362.242 57.536C363.156 57.536 363.931 57.3307 364.566 56.92C365.219 56.5093 365.732 55.9773 366.106 55.324L368.682 56.584C368.383 57.2933 367.916 57.9373 367.282 58.516C366.666 59.076 365.919 59.524 365.042 59.86C364.183 60.1773 363.24 60.336 362.214 60.336ZM379.881 66.16C378.78 66.16 377.763 65.9827 376.829 65.628C375.896 65.2733 375.093 64.7787 374.421 64.144C373.749 63.528 373.245 62.8 372.909 61.96L375.821 60.756C376.083 61.4653 376.559 62.0533 377.249 62.52C377.959 62.9867 378.827 63.22 379.853 63.22C380.656 63.22 381.375 63.0613 382.009 62.744C382.644 62.4453 383.148 61.9973 383.521 61.4C383.895 60.8213 384.081 60.1213 384.081 59.3V55.884L384.641 56.528C384.119 57.4987 383.391 58.236 382.457 58.74C381.543 59.244 380.507 59.496 379.349 59.496C377.949 59.496 376.689 59.1693 375.569 58.516C374.449 57.8627 373.563 56.9667 372.909 55.828C372.275 54.6893 371.957 53.4107 371.957 51.992C371.957 50.5547 372.275 49.276 372.909 48.156C373.563 47.036 374.44 46.1493 375.541 45.496C376.643 44.8427 377.903 44.516 379.321 44.516C380.479 44.516 381.505 44.768 382.401 45.272C383.316 45.7573 384.063 46.4667 384.641 47.4L384.221 48.184V44.852H387.217V59.3C387.217 60.6067 386.9 61.7733 386.265 62.8C385.649 63.8453 384.791 64.6667 383.689 65.264C382.588 65.8613 381.319 66.16 379.881 66.16ZM379.713 56.556C380.553 56.556 381.3 56.36 381.953 55.968C382.607 55.5573 383.12 55.016 383.493 54.344C383.885 53.6533 384.081 52.8787 384.081 52.02C384.081 51.1613 383.885 50.3867 383.493 49.696C383.101 49.0053 382.579 48.464 381.925 48.072C381.272 47.6613 380.535 47.456 379.713 47.456C378.855 47.456 378.089 47.6613 377.417 48.072C376.745 48.464 376.213 49.0053 375.821 49.696C375.448 50.368 375.261 51.1427 375.261 52.02C375.261 52.86 375.448 53.6253 375.821 54.316C376.213 55.0067 376.745 55.5573 377.417 55.968C378.089 56.36 378.855 56.556 379.713 56.556ZM392.565 66.16C392.192 66.16 391.818 66.1227 391.445 66.048C391.09 65.992 390.764 65.8987 390.465 65.768V63.052C390.689 63.108 390.96 63.1547 391.277 63.192C391.594 63.248 391.902 63.276 392.201 63.276C393.078 63.276 393.722 63.08 394.133 62.688C394.562 62.3147 394.945 61.736 395.281 60.952L396.289 58.656L396.233 61.316L389.681 44.852H393.069L397.913 57.48H396.765L401.581 44.852H404.997L398.305 61.652C397.95 62.548 397.502 63.332 396.961 64.004C396.438 64.6947 395.813 65.2267 395.085 65.6C394.376 65.9733 393.536 66.16 392.565 66.16Z" fill="#E8E9E9"/>
<defs>
<filter id="filter0_dd_0_112" x="8" y="24" width="88" height="88" filterUnits="userSpaceOnUse" color-interpolation-filters="sRGB">
<feFlood flood-opacity="0" result="BackgroundImageFix"/>
<feColorMatrix in="SourceAlpha" type="matrix" values="0 0 0 0 0 0 0 0 0 0 0 0 0 0 0 0 0 0 127 0" result="hardAlpha"/>
<feMorphology radius="4" operator="erode" in="SourceAlpha" result="effect1_dropShadow_0_112"/>
<feOffset dy="4"/>
<feGaussianBlur stdDeviation="3"/>
<feColorMatrix type="matrix" values="0 0 0 0 0.509804 0 0 0 0 0.858824 0 0 0 0 0.968627 0 0 0 0.16 0"/>
<feBlend mode="normal" in2="BackgroundImageFix" result="effect1_dropShadow_0_112"/>
<feColorMatrix in="SourceAlpha" type="matrix" values="0 0 0 0 0 0 0 0 0 0 0 0 0 0 0 0 0 0 127 0" result="hardAlpha"/>
<feMorphology radius="3" operator="erode" in="SourceAlpha" result="effect2_dropShadow_0_112"/>
<feOffset dy="10"/>
<feGaussianBlur stdDeviation="7.5"/>
<feColorMatrix type="matrix" values="0 0 0 0 0.509804 0 0 0 0 0.858824 0 0 0 0 0.968627 0 0 0 0.16 0"/>
<feBlend mode="normal" in2="effect1_dropShadow_0_112" result="effect2_dropShadow_0_112"/>
<feBlend mode="normal" in="SourceGraphic" in2="effect2_dropShadow_0_112" result="shape"/>
</filter>
</defs>
</svg>
