<svg width="33" height="33" viewBox="0 0 33 33" fill="none" xmlns="http://www.w3.org/2000/svg">
<path d="M16.5 31.5C16.5 27.3579 13.8137 24 10.5 24H7.5C4.18629 24 1.5 27.3579 1.5 31.5M31.5 25.875C31.5 21.7329 28.8137 18.375 25.5 18.375H22.5C20.708 18.375 19.0994 19.357 18 20.9141M13.5 12.75C13.5 15.8566 11.4853 18.375 9 18.375C6.51472 18.375 4.5 15.8566 4.5 12.75C4.5 9.6434 6.51472 7.125 9 7.125C11.4853 7.125 13.5 9.6434 13.5 12.75ZM28.5 7.125C28.5 10.2316 26.4853 12.75 24 12.75C21.5147 12.75 19.5 10.2316 19.5 7.125C19.5 4.0184 21.5147 1.5 24 1.5C26.4853 1.5 28.5 4.0184 28.5 7.125Z" stroke="#B6F09C" stroke-width="1.5" stroke-linecap="round" stroke-linejoin="round"/>
</svg>
